<?xml version="1.0" encoding="UTF-8"?>
<svg id="Layer_1" xmlns="http://www.w3.org/2000/svg" viewBox="0 0 667.52 70.54">
  <defs>
    <style>
      .cls-1 {
        fill: #fcee21;
      }

      .cls-2 {
        fill: #ed1c24;
      }
    </style>
  </defs>
  <g>
    <g>
      <rect class="cls-2" x="160.07" y="27.95" width="1.4" height="2.65"/>
      <rect class="cls-2" x="160.07" y="27.95" width="1.4" height="2.65" transform="translate(131.5 190.04) rotate(-90)"/>
      <rect class="cls-1" x="160.22" y="28.7" width="1.12" height="1.12"/>
      <rect class="cls-1" x="160.48" y="28.11" width=".6" height=".6"/>
      <rect class="cls-1" x="160.48" y="29.83" width=".6" height=".6"/>
      <rect class="cls-1" x="161.34" y="28.97" width=".6" height=".6"/>
      <rect class="cls-1" x="159.62" y="28.97" width=".6" height=".6"/>
    </g>
    <g>
      <rect class="cls-2" x="312.27" y="26.85" width="1.4" height="2.65"/>
      <rect class="cls-2" x="312.27" y="26.85" width="1.4" height="2.65" transform="translate(284.8 341.14) rotate(-90)"/>
      <rect class="cls-1" x="312.41" y="27.6" width="1.12" height="1.12"/>
      <rect class="cls-1" x="312.68" y="27.01" width=".6" height=".6"/>
      <rect class="cls-1" x="312.68" y="28.73" width=".6" height=".6"/>
      <rect class="cls-1" x="313.54" y="27.87" width=".6" height=".6"/>
      <rect class="cls-1" x="311.81" y="27.87" width=".6" height=".6"/>
    </g>
    <g>
      <rect class="cls-2" x="171.95" y="58.62" width="1.4" height="2.65"/>
      <rect class="cls-2" x="171.95" y="58.62" width="1.4" height="2.65" transform="translate(112.71 232.59) rotate(-90)"/>
      <rect class="cls-1" x="172.09" y="59.37" width="1.12" height="1.12"/>
      <rect class="cls-1" x="172.36" y="58.78" width=".6" height=".6"/>
      <rect class="cls-1" x="172.36" y="60.5" width=".6" height=".6"/>
      <rect class="cls-1" x="173.22" y="59.64" width=".6" height=".6"/>
      <rect class="cls-1" x="171.5" y="59.64" width=".6" height=".6"/>
    </g>
    <g>
      <rect class="cls-2" x="135.06" y="24.11" width="1.4" height="2.65"/>
      <rect class="cls-2" x="135.06" y="24.11" width="1.4" height="2.65" transform="translate(110.33 161.19) rotate(-90)"/>
      <rect class="cls-1" x="135.2" y="24.86" width="1.12" height="1.12"/>
      <rect class="cls-1" x="135.46" y="24.27" width=".6" height=".6"/>
      <rect class="cls-1" x="135.46" y="25.99" width=".6" height=".6"/>
      <rect class="cls-1" x="136.32" y="25.13" width=".6" height=".6"/>
      <rect class="cls-1" x="134.6" y="25.13" width=".6" height=".6"/>
    </g>
    <g>
      <rect class="cls-2" x="201.36" y="65.06" width="1.4" height="2.65"/>
      <rect class="cls-2" x="201.36" y="65.06" width="1.4" height="2.65" transform="translate(135.68 268.44) rotate(-90)"/>
      <rect class="cls-1" x="201.51" y="65.81" width="1.12" height="1.12"/>
      <rect class="cls-1" x="201.77" y="65.22" width=".6" height=".6"/>
      <rect class="cls-1" x="201.77" y="66.94" width=".6" height=".6"/>
      <rect class="cls-1" x="202.63" y="66.08" width=".6" height=".6"/>
      <rect class="cls-1" x="200.91" y="66.08" width=".6" height=".6"/>
    </g>
    <g>
      <rect class="cls-2" x="174.43" y="28.36" width="1.4" height="2.65"/>
      <rect class="cls-2" x="174.43" y="28.36" width="1.4" height="2.65" transform="translate(145.45 204.81) rotate(-90)"/>
      <rect class="cls-1" x="174.57" y="29.12" width="1.12" height="1.12"/>
      <rect class="cls-1" x="174.84" y="28.52" width=".6" height=".6"/>
      <rect class="cls-1" x="174.84" y="30.24" width=".6" height=".6"/>
      <rect class="cls-1" x="175.7" y="29.38" width=".6" height=".6"/>
      <rect class="cls-1" x="173.97" y="29.38" width=".6" height=".6"/>
    </g>
    <g>
      <rect class="cls-2" x="133.2" y="38.99" width="3.7" height="6.99"/>
      <rect class="cls-2" x="133.2" y="38.99" width="3.7" height="6.99" transform="translate(92.57 177.53) rotate(-90)"/>
      <rect class="cls-1" x="133.57" y="40.98" width="2.97" height="2.97"/>
      <rect class="cls-1" x="134.27" y="39.41" width="1.58" height="1.58"/>
      <rect class="cls-1" x="134.27" y="43.95" width="1.58" height="1.58"/>
      <rect class="cls-1" x="136.54" y="41.68" width="1.58" height="1.58"/>
      <rect class="cls-1" x="131.99" y="41.68" width="1.58" height="1.58"/>
    </g>
    <g>
      <rect class="cls-2" x="342.72" y="66.37" width="1.4" height="2.65"/>
      <rect class="cls-2" x="342.72" y="66.37" width="1.4" height="2.65" transform="translate(275.72 411.11) rotate(-90)"/>
      <rect class="cls-1" x="342.86" y="67.13" width="1.12" height="1.12"/>
      <rect class="cls-1" x="343.12" y="66.53" width=".6" height=".6"/>
      <rect class="cls-1" x="343.12" y="68.25" width=".6" height=".6"/>
      <rect class="cls-1" x="343.99" y="67.39" width=".6" height=".6"/>
      <rect class="cls-1" x="342.26" y="67.39" width=".6" height=".6"/>
    </g>
    <g>
      <rect class="cls-2" x="326.71" y="45.29" width="1.4" height="2.65"/>
      <rect class="cls-2" x="326.71" y="45.29" width="1.4" height="2.65" transform="translate(280.8 374.02) rotate(-90)"/>
      <rect class="cls-1" x="326.85" y="46.04" width="1.12" height="1.12"/>
      <rect class="cls-1" x="327.11" y="45.45" width=".6" height=".6"/>
      <rect class="cls-1" x="327.11" y="47.17" width=".6" height=".6"/>
      <rect class="cls-1" x="327.97" y="46.31" width=".6" height=".6"/>
      <rect class="cls-1" x="326.25" y="46.31" width=".6" height=".6"/>
    </g>
    <g>
      <rect class="cls-2" x="129.35" y="67.97" width="1.4" height="2.65"/>
      <rect class="cls-2" x="129.35" y="67.97" width="1.4" height="2.65" transform="translate(60.75 199.35) rotate(-90)"/>
      <rect class="cls-1" x="129.49" y="68.73" width="1.12" height="1.12"/>
      <rect class="cls-1" x="129.76" y="68.13" width=".6" height=".6"/>
      <rect class="cls-1" x="129.76" y="69.86" width=".6" height=".6"/>
      <rect class="cls-1" x="130.62" y="68.99" width=".6" height=".6"/>
      <rect class="cls-1" x="128.9" y="68.99" width=".6" height=".6"/>
    </g>
    <g>
      <rect class="cls-2" x="263.66" y="37.91" width="3.8" height="7.18"/>
      <rect class="cls-2" x="263.66" y="37.91" width="3.8" height="7.18" transform="translate(224.06 307.06) rotate(-90)"/>
      <rect class="cls-1" x="264.05" y="39.96" width="3.05" height="3.05"/>
      <rect class="cls-1" x="264.76" y="38.34" width="1.62" height="1.62"/>
      <rect class="cls-1" x="264.76" y="43.01" width="1.62" height="1.62"/>
      <rect class="cls-1" x="267.1" y="40.67" width="1.62" height="1.62"/>
      <rect class="cls-1" x="262.42" y="40.67" width="1.62" height="1.62"/>
    </g>
    <g>
      <rect class="cls-2" x="214.72" y="27.15" width="1.4" height="2.65"/>
      <rect class="cls-2" x="214.72" y="27.15" width="1.4" height="2.65" transform="translate(186.95 243.89) rotate(-90)"/>
      <rect class="cls-1" x="214.86" y="27.9" width="1.12" height="1.12"/>
      <rect class="cls-1" x="215.13" y="27.3" width=".6" height=".6"/>
      <rect class="cls-1" x="215.13" y="29.03" width=".6" height=".6"/>
      <rect class="cls-1" x="215.99" y="28.16" width=".6" height=".6"/>
      <rect class="cls-1" x="214.27" y="28.16" width=".6" height=".6"/>
    </g>
  </g>
  <g>
    <g>
      <rect class="cls-2" x="350.7" y="19.36" width="1.4" height="2.65" transform="translate(702.8 41.36) rotate(180)"/>
      <rect class="cls-2" x="350.7" y="19.36" width="1.4" height="2.65" transform="translate(372.08 -330.72) rotate(90)"/>
      <rect class="cls-1" x="350.84" y="20.12" width="1.12" height="1.12" transform="translate(702.8 41.37) rotate(180)"/>
      <rect class="cls-1" x="351.1" y="21.25" width=".6" height=".6" transform="translate(702.8 43.1) rotate(180)"/>
      <rect class="cls-1" x="351.1" y="19.53" width=".6" height=".6" transform="translate(702.8 39.65) rotate(180)"/>
      <rect class="cls-1" x="350.24" y="20.39" width=".6" height=".6" transform="translate(701.07 41.37) rotate(180)"/>
      <rect class="cls-1" x="351.96" y="20.39" width=".6" height=".6" transform="translate(704.52 41.37) rotate(180)"/>
    </g>
    <g>
      <rect class="cls-2" x="390.26" y="14.1" width="1.4" height="2.65" transform="translate(781.91 30.84) rotate(180)"/>
      <rect class="cls-2" x="390.26" y="14.1" width="1.4" height="2.65" transform="translate(406.38 -375.54) rotate(90)"/>
      <rect class="cls-1" x="390.39" y="14.86" width="1.12" height="1.12" transform="translate(781.91 30.85) rotate(180)"/>
      <rect class="cls-1" x="390.65" y="15.99" width=".6" height=".6" transform="translate(781.91 32.58) rotate(180)"/>
      <rect class="cls-1" x="390.65" y="14.27" width=".6" height=".6" transform="translate(781.91 29.13) rotate(180)"/>
      <rect class="cls-1" x="389.79" y="15.13" width=".6" height=".6" transform="translate(780.18 30.85) rotate(180)"/>
      <rect class="cls-1" x="391.52" y="15.13" width=".6" height=".6" transform="translate(783.63 30.85) rotate(180)"/>
    </g>
    <g>
      <rect class="cls-2" x="463.74" y="25.22" width="1.4" height="2.65" transform="translate(928.87 53.09) rotate(180)"/>
      <rect class="cls-2" x="463.74" y="25.22" width="1.4" height="2.65" transform="translate(490.98 -437.89) rotate(90)"/>
      <rect class="cls-1" x="463.87" y="25.99" width="1.12" height="1.12" transform="translate(928.87 53.1) rotate(180)"/>
      <rect class="cls-1" x="464.13" y="27.11" width=".6" height=".6" transform="translate(928.87 54.82) rotate(180)"/>
      <rect class="cls-1" x="464.13" y="25.39" width=".6" height=".6" transform="translate(928.87 51.38) rotate(180)"/>
      <rect class="cls-1" x="463.27" y="26.25" width=".6" height=".6" transform="translate(927.14 53.1) rotate(180)"/>
      <rect class="cls-1" x="465" y="26.25" width=".6" height=".6" transform="translate(930.59 53.1) rotate(180)"/>
    </g>
    <g>
      <rect class="cls-2" x="434.32" y="18.78" width="1.4" height="2.65" transform="translate(870.05 40.21) rotate(180)"/>
      <rect class="cls-2" x="434.32" y="18.78" width="1.4" height="2.65" transform="translate(455.13 -414.92) rotate(90)"/>
      <rect class="cls-1" x="434.46" y="19.55" width="1.12" height="1.12" transform="translate(870.04 40.22) rotate(180)"/>
      <rect class="cls-1" x="434.72" y="20.67" width=".6" height=".6" transform="translate(870.04 41.94) rotate(180)"/>
      <rect class="cls-1" x="434.72" y="18.95" width=".6" height=".6" transform="translate(870.04 38.49) rotate(180)"/>
      <rect class="cls-1" x="433.86" y="19.81" width=".6" height=".6" transform="translate(868.32 40.22) rotate(180)"/>
      <rect class="cls-1" x="435.58" y="19.81" width=".6" height=".6" transform="translate(871.77 40.22) rotate(180)"/>
    </g>
    <g>
      <rect class="cls-2" x="337.78" y="35.91" width="1.4" height="2.65" transform="translate(676.95 74.46) rotate(180)"/>
      <rect class="cls-2" x="337.78" y="35.91" width="1.4" height="2.65" transform="translate(375.71 -301.25) rotate(90)"/>
      <rect class="cls-1" x="337.91" y="36.67" width="1.12" height="1.12" transform="translate(676.95 74.47) rotate(180)"/>
      <rect class="cls-1" x="338.17" y="37.8" width=".6" height=".6" transform="translate(676.95 76.19) rotate(180)"/>
      <rect class="cls-1" x="338.17" y="36.08" width=".6" height=".6" transform="translate(676.95 72.75) rotate(180)"/>
      <rect class="cls-1" x="337.31" y="36.94" width=".6" height=".6" transform="translate(675.22 74.47) rotate(180)"/>
      <rect class="cls-1" x="339.04" y="36.94" width=".6" height=".6" transform="translate(678.67 74.47) rotate(180)"/>
    </g>
    <g>
      <rect class="cls-2" x="461.26" y="55.48" width="1.4" height="2.65" transform="translate(923.92 113.6) rotate(180)"/>
      <rect class="cls-2" x="461.26" y="55.48" width="1.4" height="2.65" transform="translate(518.76 -405.16) rotate(90)"/>
      <rect class="cls-1" x="461.39" y="56.24" width="1.12" height="1.12" transform="translate(923.91 113.61) rotate(180)"/>
      <rect class="cls-1" x="461.66" y="57.37" width=".6" height=".6" transform="translate(923.91 115.33) rotate(180)"/>
      <rect class="cls-1" x="461.66" y="55.65" width=".6" height=".6" transform="translate(923.91 111.89) rotate(180)"/>
      <rect class="cls-1" x="460.79" y="56.51" width=".6" height=".6" transform="translate(922.19 113.61) rotate(180)"/>
      <rect class="cls-1" x="462.52" y="56.51" width=".6" height=".6" transform="translate(925.63 113.61) rotate(180)"/>
    </g>
    <g>
      <rect class="cls-2" x="292.97" y="17.47" width="1.4" height="2.65" transform="translate(587.34 37.58) rotate(180)"/>
      <rect class="cls-2" x="292.97" y="17.47" width="1.4" height="2.65" transform="translate(312.46 -274.88) rotate(90)"/>
      <rect class="cls-1" x="293.1" y="18.23" width="1.12" height="1.12" transform="translate(587.33 37.59) rotate(180)"/>
      <rect class="cls-1" x="293.37" y="19.36" width=".6" height=".6" transform="translate(587.33 39.31) rotate(180)"/>
      <rect class="cls-1" x="293.37" y="17.63" width=".6" height=".6" transform="translate(587.33 35.86) rotate(180)"/>
      <rect class="cls-1" x="292.51" y="18.49" width=".6" height=".6" transform="translate(585.61 37.59) rotate(180)"/>
      <rect class="cls-1" x="294.23" y="18.49" width=".6" height=".6" transform="translate(589.05 37.59) rotate(180)"/>
    </g>
    <g>
      <rect class="cls-2" x="486.22" y="29.77" width="1.4" height="2.65" transform="translate(973.85 62.19) rotate(180)"/>
      <rect class="cls-2" x="486.22" y="29.77" width="1.4" height="2.65" transform="translate(518.02 -455.83) rotate(90)"/>
      <rect class="cls-1" x="486.36" y="30.54" width="1.12" height="1.12" transform="translate(973.84 62.2) rotate(180)"/>
      <rect class="cls-1" x="486.62" y="31.66" width=".6" height=".6" transform="translate(973.84 63.92) rotate(180)"/>
      <rect class="cls-1" x="486.62" y="29.94" width=".6" height=".6" transform="translate(973.84 60.48) rotate(180)"/>
      <rect class="cls-1" x="485.76" y="30.8" width=".6" height=".6" transform="translate(972.12 62.2) rotate(180)"/>
      <rect class="cls-1" x="487.48" y="30.8" width=".6" height=".6" transform="translate(975.56 62.2) rotate(180)"/>
    </g>
    <g>
      <rect class="cls-2" x="308.98" y="38.55" width="1.4" height="2.65" transform="translate(619.36 79.75) rotate(180)"/>
      <rect class="cls-2" x="308.98" y="38.55" width="1.4" height="2.65" transform="translate(349.55 -269.81) rotate(90)"/>
      <rect class="cls-1" x="309.12" y="39.31" width="1.12" height="1.12" transform="translate(619.36 79.75) rotate(180)"/>
      <rect class="cls-1" x="309.38" y="40.44" width=".6" height=".6" transform="translate(619.36 81.48) rotate(180)"/>
      <rect class="cls-1" x="309.38" y="38.72" width=".6" height=".6" transform="translate(619.36 78.03) rotate(180)"/>
      <rect class="cls-1" x="308.52" y="39.58" width=".6" height=".6" transform="translate(617.63 79.75) rotate(180)"/>
      <rect class="cls-1" x="310.24" y="39.58" width=".6" height=".6" transform="translate(621.08 79.75) rotate(180)"/>
    </g>
    <g>
      <rect class="cls-2" x="363.61" y="30.39" width="3.95" height="7.46" transform="translate(731.17 68.24) rotate(180)"/>
      <rect class="cls-2" x="363.61" y="30.39" width="3.95" height="7.46" transform="translate(399.71 -331.46) rotate(90)"/>
      <rect class="cls-1" x="363.98" y="32.55" width="3.17" height="3.17" transform="translate(731.14 68.27) rotate(180)"/>
      <rect class="cls-1" x="364.73" y="35.72" width="1.69" height="1.69" transform="translate(731.14 73.13) rotate(180)"/>
      <rect class="cls-1" x="364.73" y="30.86" width="1.69" height="1.69" transform="translate(731.14 63.41) rotate(180)"/>
      <rect class="cls-1" x="362.3" y="33.29" width="1.69" height="1.69" transform="translate(726.28 68.27) rotate(180)"/>
      <rect class="cls-1" x="367.16" y="33.29" width="1.69" height="1.69" transform="translate(736 68.27) rotate(180)"/>
    </g>
    <g>
      <rect class="cls-2" x="420.97" y="56.69" width="1.4" height="2.65" transform="translate(843.33 116.03) rotate(180)"/>
      <rect class="cls-2" x="420.97" y="56.69" width="1.4" height="2.65" transform="translate(479.68 -363.65) rotate(90)"/>
      <rect class="cls-1" x="421.1" y="57.46" width="1.12" height="1.12" transform="translate(843.32 116.04) rotate(180)"/>
      <rect class="cls-1" x="421.36" y="58.58" width=".6" height=".6" transform="translate(843.32 117.76) rotate(180)"/>
      <rect class="cls-1" x="421.36" y="56.86" width=".6" height=".6" transform="translate(843.32 114.32) rotate(180)"/>
      <rect class="cls-1" x="420.5" y="57.72" width=".6" height=".6" transform="translate(841.6 116.04) rotate(180)"/>
      <rect class="cls-1" x="422.22" y="57.72" width=".6" height=".6" transform="translate(845.05 116.04) rotate(180)"/>
    </g>
  </g>
  <g>
    <g>
      <rect class="cls-2" x="564.78" y="29.18" width="1.4" height="2.65" transform="translate(1130.96 61) rotate(180)"/>
      <rect class="cls-2" x="564.78" y="29.18" width="1.4" height="2.65" transform="translate(595.98 -534.98) rotate(90)"/>
      <rect class="cls-1" x="564.91" y="29.94" width="1.12" height="1.12" transform="translate(1130.95 61.01) rotate(180)"/>
      <rect class="cls-1" x="565.18" y="31.07" width=".6" height=".6" transform="translate(1130.95 62.73) rotate(180)"/>
      <rect class="cls-1" x="565.18" y="29.34" width=".6" height=".6" transform="translate(1130.95 59.28) rotate(180)"/>
      <rect class="cls-1" x="564.32" y="30.2" width=".6" height=".6" transform="translate(1129.23 61.01) rotate(180)"/>
      <rect class="cls-1" x="566.04" y="30.2" width=".6" height=".6" transform="translate(1132.68 61.01) rotate(180)"/>
    </g>
    <g>
      <rect class="cls-2" x="604.34" y="23.92" width="1.4" height="2.65" transform="translate(1210.07 50.48) rotate(180)"/>
      <rect class="cls-2" x="604.34" y="23.92" width="1.4" height="2.65" transform="translate(630.28 -579.8) rotate(90)"/>
      <rect class="cls-1" x="604.47" y="24.68" width="1.12" height="1.12" transform="translate(1210.06 50.49) rotate(180)"/>
      <rect class="cls-1" x="604.73" y="25.81" width=".6" height=".6" transform="translate(1210.06 52.21) rotate(180)"/>
      <rect class="cls-1" x="604.73" y="24.08" width=".6" height=".6" transform="translate(1210.06 48.77) rotate(180)"/>
      <rect class="cls-1" x="603.87" y="24.95" width=".6" height=".6" transform="translate(1208.34 50.49) rotate(180)"/>
      <rect class="cls-1" x="605.59" y="24.95" width=".6" height=".6" transform="translate(1211.79 50.49) rotate(180)"/>
    </g>
    <g>
      <rect class="cls-2" x="502.65" y="44.39" width="1.4" height="2.65" transform="translate(1006.7 91.43) rotate(180)"/>
      <rect class="cls-2" x="502.65" y="44.39" width="1.4" height="2.65" transform="translate(549.07 -457.63) rotate(90)"/>
      <rect class="cls-1" x="502.78" y="45.16" width="1.12" height="1.12" transform="translate(1006.69 91.44) rotate(180)"/>
      <rect class="cls-1" x="503.05" y="46.28" width=".6" height=".6" transform="translate(1006.69 93.17) rotate(180)"/>
      <rect class="cls-1" x="503.05" y="44.56" width=".6" height=".6" transform="translate(1006.69 89.72) rotate(180)"/>
      <rect class="cls-1" x="502.19" y="45.42" width=".6" height=".6" transform="translate(1004.97 91.44) rotate(180)"/>
      <rect class="cls-1" x="503.91" y="45.42" width=".6" height=".6" transform="translate(1008.41 91.44) rotate(180)"/>
    </g>
    <g>
      <rect class="cls-2" x="647.56" y="27.01" width="3.09" height="5.83" transform="translate(1298.21 59.84) rotate(180)"/>
      <rect class="cls-2" x="647.56" y="27.01" width="3.09" height="5.83" transform="translate(679.03 -619.18) rotate(90)"/>
      <rect class="cls-1" x="647.86" y="28.69" width="2.48" height="2.48" transform="translate(1298.19 59.86) rotate(180)"/>
      <rect class="cls-1" x="648.44" y="31.17" width="1.32" height="1.32" transform="translate(1298.19 63.66) rotate(180)"/>
      <rect class="cls-1" x="648.44" y="27.37" width="1.32" height="1.32" transform="translate(1298.19 56.06) rotate(180)"/>
      <rect class="cls-1" x="646.54" y="29.27" width="1.32" height="1.32" transform="translate(1294.39 59.86) rotate(180)"/>
      <rect class="cls-1" x="650.33" y="29.27" width="1.32" height="1.32" transform="translate(1301.99 59.86) rotate(180)"/>
    </g>
    <g>
      <rect class="cls-2" x="551.86" y="45.73" width="1.4" height="2.65" transform="translate(1105.11 94.1) rotate(180)"/>
      <rect class="cls-2" x="551.86" y="45.73" width="1.4" height="2.65" transform="translate(599.61 -505.51) rotate(90)"/>
      <rect class="cls-1" x="551.99" y="46.49" width="1.12" height="1.12" transform="translate(1105.1 94.11) rotate(180)"/>
      <rect class="cls-1" x="552.25" y="47.62" width=".6" height=".6" transform="translate(1105.1 95.83) rotate(180)"/>
      <rect class="cls-1" x="552.25" y="45.89" width=".6" height=".6" transform="translate(1105.1 92.38) rotate(180)"/>
      <rect class="cls-1" x="551.39" y="46.75" width=".6" height=".6" transform="translate(1103.38 94.11) rotate(180)"/>
      <rect class="cls-1" x="553.11" y="46.75" width=".6" height=".6" transform="translate(1106.83 94.11) rotate(180)"/>
    </g>
    <g>
      <rect class="cls-2" x="507.05" y="27.28" width="1.4" height="2.65" transform="translate(1015.5 57.21) rotate(180)"/>
      <rect class="cls-2" x="507.05" y="27.28" width="1.4" height="2.65" transform="translate(536.36 -479.14) rotate(90)"/>
      <rect class="cls-1" x="507.18" y="28.05" width="1.12" height="1.12" transform="translate(1015.49 57.22) rotate(180)"/>
      <rect class="cls-1" x="507.45" y="29.17" width=".6" height=".6" transform="translate(1015.49 58.94) rotate(180)"/>
      <rect class="cls-1" x="507.45" y="27.45" width=".6" height=".6" transform="translate(1015.49 55.5) rotate(180)"/>
      <rect class="cls-1" x="506.58" y="28.31" width=".6" height=".6" transform="translate(1013.77 57.22) rotate(180)"/>
      <rect class="cls-1" x="508.31" y="28.31" width=".6" height=".6" transform="translate(1017.21 57.22) rotate(180)"/>
    </g>
    <g>
      <rect class="cls-2" x="545.14" y="23.13" width="1.4" height="2.65" transform="translate(1091.67 48.9) rotate(180)"/>
      <rect class="cls-2" x="545.14" y="23.13" width="1.4" height="2.65" transform="translate(570.28 -521.39) rotate(90)"/>
      <rect class="cls-1" x="545.27" y="23.89" width="1.12" height="1.12" transform="translate(1091.66 48.91) rotate(180)"/>
      <rect class="cls-1" x="545.53" y="25.02" width=".6" height=".6" transform="translate(1091.66 50.63) rotate(180)"/>
      <rect class="cls-1" x="545.53" y="23.29" width=".6" height=".6" transform="translate(1091.66 47.18) rotate(180)"/>
      <rect class="cls-1" x="544.67" y="24.15" width=".6" height=".6" transform="translate(1089.94 48.91) rotate(180)"/>
      <rect class="cls-1" x="546.39" y="24.15" width=".6" height=".6" transform="translate(1093.39 48.91) rotate(180)"/>
    </g>
    <g>
      <rect class="cls-2" x="529.35" y="20.17" width="1.4" height="2.65" transform="translate(1060.09 42.99) rotate(180)"/>
      <rect class="cls-2" x="529.35" y="20.17" width="1.4" height="2.65" transform="translate(551.54 -508.55) rotate(90)"/>
      <rect class="cls-1" x="529.48" y="20.94" width="1.12" height="1.12" transform="translate(1060.08 43) rotate(180)"/>
      <rect class="cls-1" x="529.74" y="22.06" width=".6" height=".6" transform="translate(1060.08 44.72) rotate(180)"/>
      <rect class="cls-1" x="529.74" y="20.34" width=".6" height=".6" transform="translate(1060.08 41.28) rotate(180)"/>
      <rect class="cls-1" x="528.88" y="21.2" width=".6" height=".6" transform="translate(1058.36 43) rotate(180)"/>
      <rect class="cls-1" x="530.6" y="21.2" width=".6" height=".6" transform="translate(1061.81 43) rotate(180)"/>
    </g>
    <g>
      <rect class="cls-2" x="523.06" y="48.37" width="1.4" height="2.65" transform="translate(1047.52 99.38) rotate(180)"/>
      <rect class="cls-2" x="523.06" y="48.37" width="1.4" height="2.65" transform="translate(573.45 -474.07) rotate(90)"/>
      <rect class="cls-1" x="523.19" y="49.13" width="1.12" height="1.12" transform="translate(1047.51 99.39) rotate(180)"/>
      <rect class="cls-1" x="523.46" y="50.26" width=".6" height=".6" transform="translate(1047.51 101.11) rotate(180)"/>
      <rect class="cls-1" x="523.46" y="48.53" width=".6" height=".6" transform="translate(1047.51 97.67) rotate(180)"/>
      <rect class="cls-1" x="522.6" y="49.4" width=".6" height=".6" transform="translate(1045.79 99.39) rotate(180)"/>
      <rect class="cls-1" x="524.32" y="49.4" width=".6" height=".6" transform="translate(1049.24 99.39) rotate(180)"/>
    </g>
    <g>
      <rect class="cls-2" x="510.79" y="63.98" width="1.4" height="2.65" transform="translate(1022.99 130.6) rotate(180)"/>
      <rect class="cls-2" x="510.79" y="63.98" width="1.4" height="2.65" transform="translate(576.79 -446.2) rotate(90)"/>
      <rect class="cls-1" x="510.93" y="64.74" width="1.12" height="1.12" transform="translate(1022.98 130.61) rotate(180)"/>
      <rect class="cls-1" x="511.19" y="65.87" width=".6" height=".6" transform="translate(1022.98 132.33) rotate(180)"/>
      <rect class="cls-1" x="511.19" y="64.14" width=".6" height=".6" transform="translate(1022.98 128.89) rotate(180)"/>
      <rect class="cls-1" x="510.33" y="65.01" width=".6" height=".6" transform="translate(1021.26 130.61) rotate(180)"/>
      <rect class="cls-1" x="512.05" y="65.01" width=".6" height=".6" transform="translate(1024.7 130.61) rotate(180)"/>
    </g>
  </g>
  <g>
    <g>
      <rect class="cls-2" x="28.19" y="42.58" width="1.4" height="2.65"/>
      <rect class="cls-2" x="28.19" y="42.58" width="1.4" height="2.65" transform="translate(-15.01 72.8) rotate(-90)"/>
      <rect class="cls-1" x="28.33" y="43.34" width="1.12" height="1.12"/>
      <rect class="cls-1" x="28.6" y="42.74" width=".6" height=".6"/>
      <rect class="cls-1" x="28.6" y="44.46" width=".6" height=".6"/>
      <rect class="cls-1" x="29.46" y="43.6" width=".6" height=".6"/>
      <rect class="cls-1" x="27.74" y="43.6" width=".6" height=".6"/>
    </g>
    <g>
      <rect class="cls-2" x="90.32" y="27.36" width="1.4" height="2.65"/>
      <rect class="cls-2" x="90.32" y="27.36" width="1.4" height="2.65" transform="translate(62.34 119.71) rotate(-90)"/>
      <rect class="cls-1" x="90.46" y="28.12" width="1.12" height="1.12"/>
      <rect class="cls-1" x="90.73" y="27.52" width=".6" height=".6"/>
      <rect class="cls-1" x="90.73" y="29.25" width=".6" height=".6"/>
      <rect class="cls-1" x="91.59" y="28.38" width=".6" height=".6"/>
      <rect class="cls-1" x="89.87" y="28.38" width=".6" height=".6"/>
    </g>
    <g>
      <rect class="cls-2" x="41.12" y="26.03" width="1.4" height="2.65"/>
      <rect class="cls-2" x="41.12" y="26.03" width="1.4" height="2.65" transform="translate(14.46 69.17) rotate(-90)"/>
      <rect class="cls-1" x="41.26" y="26.79" width="1.12" height="1.12"/>
      <rect class="cls-1" x="41.52" y="26.19" width=".6" height=".6"/>
      <rect class="cls-1" x="41.52" y="27.91" width=".6" height=".6"/>
      <rect class="cls-1" x="42.38" y="27.05" width=".6" height=".6"/>
      <rect class="cls-1" x="40.66" y="27.05" width=".6" height=".6"/>
    </g>
    <g>
      <rect class="cls-2" x="85.92" y="44.47" width="1.4" height="2.65"/>
      <rect class="cls-2" x="85.92" y="44.47" width="1.4" height="2.65" transform="translate(40.83 132.42) rotate(-90)"/>
      <rect class="cls-1" x="86.07" y="45.23" width="1.12" height="1.12"/>
      <rect class="cls-1" x="86.33" y="44.63" width=".6" height=".6"/>
      <rect class="cls-1" x="86.33" y="46.36" width=".6" height=".6"/>
      <rect class="cls-1" x="87.19" y="45.49" width=".6" height=".6"/>
      <rect class="cls-1" x="85.47" y="45.49" width=".6" height=".6"/>
    </g>
    <g>
      <rect class="cls-2" x="47.84" y="48.63" width="1.4" height="2.65"/>
      <rect class="cls-2" x="47.84" y="48.63" width="1.4" height="2.65" transform="translate(-1.42 98.49) rotate(-90)"/>
      <rect class="cls-1" x="47.98" y="49.39" width="1.12" height="1.12"/>
      <rect class="cls-1" x="48.24" y="48.79" width=".6" height=".6"/>
      <rect class="cls-1" x="48.24" y="50.51" width=".6" height=".6"/>
      <rect class="cls-1" x="49.1" y="49.65" width=".6" height=".6"/>
      <rect class="cls-1" x="47.38" y="49.65" width=".6" height=".6"/>
    </g>
    <g>
      <rect class="cls-2" x="63.63" y="51.59" width="1.4" height="2.65"/>
      <rect class="cls-2" x="63.63" y="51.59" width="1.4" height="2.65" transform="translate(11.42 117.24) rotate(-90)"/>
      <rect class="cls-1" x="63.77" y="52.34" width="1.12" height="1.12"/>
      <rect class="cls-1" x="64.03" y="51.74" width=".6" height=".6"/>
      <rect class="cls-1" x="64.03" y="53.47" width=".6" height=".6"/>
      <rect class="cls-1" x="64.89" y="52.61" width=".6" height=".6"/>
      <rect class="cls-1" x="63.17" y="52.61" width=".6" height=".6"/>
    </g>
    <g>
      <rect class="cls-2" x="69.91" y="23.39" width="1.4" height="2.65"/>
      <rect class="cls-2" x="69.91" y="23.39" width="1.4" height="2.65" transform="translate(45.9 95.33) rotate(-90)"/>
      <rect class="cls-1" x="70.05" y="24.15" width="1.12" height="1.12"/>
      <rect class="cls-1" x="70.32" y="23.55" width=".6" height=".6"/>
      <rect class="cls-1" x="70.32" y="25.27" width=".6" height=".6"/>
      <rect class="cls-1" x="71.18" y="24.41" width=".6" height=".6"/>
      <rect class="cls-1" x="69.46" y="24.41" width=".6" height=".6"/>
    </g>
    <g>
      <rect class="cls-2" x="82.18" y="7.78" width="1.4" height="2.65"/>
      <rect class="cls-2" x="82.18" y="7.78" width="1.4" height="2.65" transform="translate(73.77 91.98) rotate(-90)"/>
      <rect class="cls-1" x="82.32" y="8.54" width="1.12" height="1.12"/>
      <rect class="cls-1" x="82.58" y="7.94" width=".6" height=".6"/>
      <rect class="cls-1" x="82.58" y="9.66" width=".6" height=".6"/>
      <rect class="cls-1" x="83.45" y="8.8" width=".6" height=".6"/>
      <rect class="cls-1" x="81.72" y="8.8" width=".6" height=".6"/>
    </g>
  </g>
</svg>