<?xml version="1.0" encoding="UTF-8"?>
<svg id="Layer_2" data-name="Layer 2" xmlns="http://www.w3.org/2000/svg" viewBox="0 0 897.19 223.51">
  <defs>
    <style>
      .cls-1 {
        fill: #fcee21;
      }

      .cls-2 {
        fill: #ed1c24;
      }
    </style>
  </defs>
  <g id="Layer_1-2" data-name="Layer 1">
    <g id="stars7">
      <g>
        <rect class="cls-2" x="760.21" y="10.72" width="1.67" height="3.15" transform="translate(1522.1 24.59) rotate(180)"/>
        <rect class="cls-2" x="760.21" y="10.72" width="1.67" height="3.15" transform="translate(773.34 -748.75) rotate(90)"/>
        <rect class="cls-1" x="760.37" y="11.63" width="1.34" height="1.34" transform="translate(1522.08 24.6) rotate(180)"/>
        <rect class="cls-1" x="760.69" y="12.97" width=".71" height=".71" transform="translate(1522.08 26.65) rotate(180)"/>
        <rect class="cls-1" x="760.69" y="10.92" width=".71" height=".71" transform="translate(1522.08 22.55) rotate(180)"/>
        <rect class="cls-1" x="759.66" y="11.94" width=".71" height=".71" transform="translate(1520.03 24.6) rotate(180)"/>
        <rect class="cls-1" x="761.71" y="11.94" width=".71" height=".71" transform="translate(1524.14 24.6) rotate(180)"/>
      </g>
      <g>
        <rect class="cls-2" x="807.3" y="4.46" width="1.67" height="3.15" transform="translate(1616.28 12.06) rotate(180)"/>
        <rect class="cls-2" x="807.3" y="4.46" width="1.67" height="3.15" transform="translate(814.17 -802.11) rotate(90)"/>
        <rect class="cls-1" x="807.46" y="5.37" width="1.34" height="1.34" transform="translate(1616.26 12.07) rotate(180)"/>
        <rect class="cls-1" x="807.78" y="6.71" width=".71" height=".71" transform="translate(1616.26 14.12) rotate(180)"/>
        <rect class="cls-1" x="807.78" y="4.66" width=".71" height=".71" transform="translate(1616.26 10.02) rotate(180)"/>
        <rect class="cls-1" x="806.75" y="5.68" width=".71" height=".71" transform="translate(1614.21 12.07) rotate(180)"/>
        <rect class="cls-1" x="808.8" y="5.68" width=".71" height=".71" transform="translate(1618.32 12.07) rotate(180)"/>
      </g>
      <g>
        <rect class="cls-2" x="686.25" y="28.84" width="1.67" height="3.15" transform="translate(1374.16 60.82) rotate(180)"/>
        <rect class="cls-2" x="686.25" y="28.84" width="1.67" height="3.15" transform="translate(717.49 -656.67) rotate(90)"/>
        <rect class="cls-1" x="686.41" y="29.75" width="1.34" height="1.34" transform="translate(1374.15 60.83) rotate(180)"/>
        <rect class="cls-1" x="686.72" y="31.08" width=".71" height=".71" transform="translate(1374.15 62.88) rotate(180)"/>
        <rect class="cls-1" x="686.72" y="29.03" width=".71" height=".71" transform="translate(1374.15 58.78) rotate(180)"/>
        <rect class="cls-1" x="685.69" y="30.06" width=".71" height=".71" transform="translate(1372.1 60.83) rotate(180)"/>
        <rect class="cls-1" x="687.75" y="30.06" width=".71" height=".71" transform="translate(1376.2 60.83) rotate(180)"/>
      </g>
      <g>
        <rect class="cls-2" x="894.78" y="17.7" width="1.67" height="3.15" transform="translate(1791.23 38.55) rotate(180)"/>
        <rect class="cls-2" x="894.78" y="17.7" width="1.67" height="3.15" transform="translate(914.89 -876.34) rotate(90)"/>
        <rect class="cls-1" x="894.94" y="18.61" width="1.34" height="1.34" transform="translate(1791.22 38.56) rotate(180)"/>
        <rect class="cls-1" x="895.25" y="19.95" width=".71" height=".71" transform="translate(1791.22 40.61) rotate(180)"/>
        <rect class="cls-1" x="895.25" y="17.9" width=".71" height=".71" transform="translate(1791.22 36.51) rotate(180)"/>
        <rect class="cls-1" x="894.23" y="18.92" width=".71" height=".71" transform="translate(1789.17 38.56) rotate(180)"/>
        <rect class="cls-1" x="896.28" y="18.92" width=".71" height=".71" transform="translate(1793.27 38.56) rotate(180)"/>
      </g>
      <g>
        <rect class="cls-2" x="858.76" y="8.13" width="3.68" height="6.94" transform="translate(1721.2 23.21) rotate(180)"/>
        <rect class="cls-2" x="858.76" y="8.13" width="3.68" height="6.94" transform="translate(872.21 -849) rotate(90)"/>
        <rect class="cls-1" x="859.11" y="10.14" width="2.95" height="2.95" transform="translate(1721.18 23.23) rotate(180)"/>
        <rect class="cls-1" x="859.81" y="13.09" width="1.57" height="1.57" transform="translate(1721.18 27.75) rotate(180)"/>
        <rect class="cls-1" x="859.81" y="8.57" width="1.57" height="1.57" transform="translate(1721.18 18.71) rotate(180)"/>
        <rect class="cls-1" x="857.55" y="10.83" width="1.57" height="1.57" transform="translate(1716.66 23.23) rotate(180)"/>
        <rect class="cls-1" x="862.07" y="10.83" width="1.57" height="1.57" transform="translate(1725.7 23.23) rotate(180)"/>
      </g>
      <g>
        <rect class="cls-2" x="744.83" y="30.42" width="1.67" height="3.15" transform="translate(1491.32 63.99) rotate(180)"/>
        <rect class="cls-2" x="744.83" y="30.42" width="1.67" height="3.15" transform="translate(777.66 -713.67) rotate(90)"/>
        <rect class="cls-1" x="744.99" y="31.33" width="1.34" height="1.34" transform="translate(1491.31 64) rotate(180)"/>
        <rect class="cls-1" x="745.3" y="32.67" width=".71" height=".71" transform="translate(1491.31 66.05) rotate(180)"/>
        <rect class="cls-1" x="745.3" y="30.62" width=".71" height=".71" transform="translate(1491.31 61.95) rotate(180)"/>
        <rect class="cls-1" x="744.27" y="31.64" width=".71" height=".71" transform="translate(1489.26 64) rotate(180)"/>
        <rect class="cls-1" x="746.32" y="31.64" width=".71" height=".71" transform="translate(1493.36 64) rotate(180)"/>
      </g>
      <g>
        <rect class="cls-2" x="691.48" y="8.47" width="1.67" height="3.15" transform="translate(1384.64 20.08) rotate(180)"/>
        <rect class="cls-2" x="691.48" y="8.47" width="1.67" height="3.15" transform="translate(702.36 -682.28) rotate(90)"/>
        <rect class="cls-1" x="691.64" y="9.38" width="1.34" height="1.34" transform="translate(1384.62 20.09) rotate(180)"/>
        <rect class="cls-1" x="691.96" y="10.71" width=".71" height=".71" transform="translate(1384.62 22.14) rotate(180)"/>
        <rect class="cls-1" x="691.96" y="8.66" width=".71" height=".71" transform="translate(1384.62 18.04) rotate(180)"/>
        <rect class="cls-1" x="690.93" y="9.69" width=".71" height=".71" transform="translate(1382.57 20.09) rotate(180)"/>
        <rect class="cls-1" x="692.98" y="9.69" width=".71" height=".71" transform="translate(1386.68 20.09) rotate(180)"/>
      </g>
      <g>
        <rect class="cls-2" x="736.83" y="3.52" width="1.67" height="3.15" transform="translate(1475.32 10.18) rotate(180)"/>
        <rect class="cls-2" x="736.83" y="3.52" width="1.67" height="3.15" transform="translate(742.75 -732.57) rotate(90)"/>
        <rect class="cls-1" x="736.99" y="4.43" width="1.34" height="1.34" transform="translate(1475.31 10.19) rotate(180)"/>
        <rect class="cls-1" x="737.3" y="5.77" width=".71" height=".71" transform="translate(1475.31 12.24) rotate(180)"/>
        <rect class="cls-1" x="737.3" y="3.71" width=".71" height=".71" transform="translate(1475.31 8.14) rotate(180)"/>
        <rect class="cls-1" x="736.27" y="4.74" width=".71" height=".71" transform="translate(1473.26 10.19) rotate(180)"/>
        <rect class="cls-1" x="738.32" y="4.74" width=".71" height=".71" transform="translate(1477.36 10.19) rotate(180)"/>
      </g>
      <g>
        <rect class="cls-2" x="718.03" width="1.67" height="3.15" transform="translate(1437.72 3.15) rotate(180)"/>
        <rect class="cls-2" x="718.03" y="0" width="1.67" height="3.15" transform="translate(720.44 -717.29) rotate(90)"/>
        <rect class="cls-1" x="718.19" y=".91" width="1.34" height="1.34" transform="translate(1437.71 3.16) rotate(180)"/>
        <rect class="cls-1" x="718.5" y="2.25" width=".71" height=".71" transform="translate(1437.71 5.21) rotate(180)"/>
        <rect class="cls-1" x="718.5" y=".2" width=".71" height=".71" transform="translate(1437.71 1.11) rotate(180)"/>
        <rect class="cls-1" x="717.48" y="1.22" width=".71" height=".71" transform="translate(1435.66 3.16) rotate(180)"/>
        <rect class="cls-1" x="719.53" y="1.22" width=".71" height=".71" transform="translate(1439.77 3.16) rotate(180)"/>
      </g>
      <g>
        <rect class="cls-2" x="710.55" y="33.57" width="1.67" height="3.15" transform="translate(1422.76 70.28) rotate(180)"/>
        <rect class="cls-2" x="710.55" y="33.57" width="1.67" height="3.15" transform="translate(746.52 -676.24) rotate(90)"/>
        <rect class="cls-1" x="710.7" y="34.48" width="1.34" height="1.34" transform="translate(1422.75 70.29) rotate(180)"/>
        <rect class="cls-1" x="711.02" y="35.81" width=".71" height=".71" transform="translate(1422.75 72.34) rotate(180)"/>
        <rect class="cls-1" x="711.02" y="33.76" width=".71" height=".71" transform="translate(1422.75 68.24) rotate(180)"/>
        <rect class="cls-1" x="709.99" y="34.79" width=".71" height=".71" transform="translate(1420.7 70.29) rotate(180)"/>
        <rect class="cls-1" x="712.04" y="34.79" width=".71" height=".71" transform="translate(1424.8 70.29) rotate(180)"/>
      </g>
      <g>
        <rect class="cls-2" x="695.94" y="52.15" width="1.67" height="3.15" transform="translate(1393.55 107.45) rotate(180)"/>
        <rect class="cls-2" x="695.94" y="52.15" width="1.67" height="3.15" transform="translate(750.5 -643.05) rotate(90)"/>
        <rect class="cls-1" x="696.1" y="53.06" width="1.34" height="1.34" transform="translate(1393.54 107.46) rotate(180)"/>
        <rect class="cls-1" x="696.42" y="54.4" width=".71" height=".71" transform="translate(1393.54 109.51) rotate(180)"/>
        <rect class="cls-1" x="696.42" y="52.35" width=".71" height=".71" transform="translate(1393.54 105.41) rotate(180)"/>
        <rect class="cls-1" x="695.39" y="53.37" width=".71" height=".71" transform="translate(1391.49 107.46) rotate(180)"/>
        <rect class="cls-1" x="697.44" y="53.37" width=".71" height=".71" transform="translate(1395.59 107.46) rotate(180)"/>
      </g>
    </g>
    <g id="stars6">
      <g>
        <rect class="cls-2" x="494.8" y="214.09" width="1.67" height="3.15"/>
        <rect class="cls-2" x="494.8" y="214.09" width="1.67" height="3.15" transform="translate(279.96 711.3) rotate(-90)"/>
        <rect class="cls-1" x="494.97" y="214.99" width="1.34" height="1.34"/>
        <rect class="cls-1" x="495.28" y="214.28" width=".71" height=".71"/>
        <rect class="cls-1" x="495.28" y="216.33" width=".71" height=".71"/>
        <rect class="cls-1" x="496.3" y="215.31" width=".71" height=".71"/>
        <rect class="cls-1" x="494.25" y="215.31" width=".71" height=".71"/>
      </g>
      <g>
        <rect class="cls-2" x="447.71" y="220.36" width="1.67" height="3.15"/>
        <rect class="cls-2" x="447.71" y="220.36" width="1.67" height="3.15" transform="translate(226.61 670.47) rotate(-90)"/>
        <rect class="cls-1" x="447.88" y="221.26" width="1.34" height="1.34"/>
        <rect class="cls-1" x="448.19" y="220.54" width=".71" height=".71"/>
        <rect class="cls-1" x="448.19" y="222.6" width=".71" height=".71"/>
        <rect class="cls-1" x="449.21" y="221.57" width=".71" height=".71"/>
        <rect class="cls-1" x="447.16" y="221.57" width=".71" height=".71"/>
      </g>
      <g>
        <rect class="cls-2" x="360.23" y="207.12" width="1.67" height="3.15"/>
        <rect class="cls-2" x="360.23" y="207.12" width="1.67" height="3.15" transform="translate(152.37 569.75) rotate(-90)"/>
        <rect class="cls-1" x="360.4" y="208.01" width="1.34" height="1.34"/>
        <rect class="cls-1" x="360.71" y="207.3" width=".71" height=".71"/>
        <rect class="cls-1" x="360.71" y="209.35" width=".71" height=".71"/>
        <rect class="cls-1" x="361.74" y="208.33" width=".71" height=".71"/>
        <rect class="cls-1" x="359.69" y="208.33" width=".71" height=".71"/>
      </g>
      <g>
        <rect class="cls-2" x="395.24" y="214.78" width="1.67" height="3.15"/>
        <rect class="cls-2" x="395.24" y="214.78" width="1.67" height="3.15" transform="translate(179.72 612.43) rotate(-90)"/>
        <rect class="cls-1" x="395.41" y="215.68" width="1.34" height="1.34"/>
        <rect class="cls-1" x="395.73" y="214.97" width=".71" height=".71"/>
        <rect class="cls-1" x="395.73" y="217.02" width=".71" height=".71"/>
        <rect class="cls-1" x="396.75" y="216" width=".71" height=".71"/>
        <rect class="cls-1" x="394.7" y="216" width=".71" height=".71"/>
      </g>
      <g>
        <rect class="cls-2" x="510.18" y="194.39" width="1.67" height="3.15"/>
        <rect class="cls-2" x="510.18" y="194.39" width="1.67" height="3.15" transform="translate(315.05 706.98) rotate(-90)"/>
        <rect class="cls-1" x="510.35" y="195.29" width="1.34" height="1.34"/>
        <rect class="cls-1" x="510.67" y="194.58" width=".71" height=".71"/>
        <rect class="cls-1" x="510.67" y="196.63" width=".71" height=".71"/>
        <rect class="cls-1" x="511.69" y="195.61" width=".71" height=".71"/>
        <rect class="cls-1" x="509.64" y="195.61" width=".71" height=".71"/>
      </g>
      <g>
        <rect class="cls-2" x="363.18" y="171.1" width="1.67" height="3.15"/>
        <rect class="cls-2" x="363.18" y="171.1" width="1.67" height="3.15" transform="translate(191.34 536.68) rotate(-90)"/>
        <rect class="cls-1" x="363.35" y="171.99" width="1.34" height="1.34"/>
        <rect class="cls-1" x="363.66" y="171.28" width=".71" height=".71"/>
        <rect class="cls-1" x="363.66" y="173.33" width=".71" height=".71"/>
        <rect class="cls-1" x="364.69" y="172.31" width=".71" height=".71"/>
        <rect class="cls-1" x="362.64" y="172.31" width=".71" height=".71"/>
      </g>
      <g>
        <rect class="cls-2" x="563.53" y="216.35" width="1.67" height="3.15"/>
        <rect class="cls-2" x="563.53" y="216.35" width="1.67" height="3.15" transform="translate(346.44 782.28) rotate(-90)"/>
        <rect class="cls-1" x="563.7" y="217.25" width="1.34" height="1.34"/>
        <rect class="cls-1" x="564.01" y="216.54" width=".71" height=".71"/>
        <rect class="cls-1" x="564.01" y="218.59" width=".71" height=".71"/>
        <rect class="cls-1" x="565.03" y="217.56" width=".71" height=".71"/>
        <rect class="cls-1" x="562.98" y="217.56" width=".71" height=".71"/>
      </g>
      <g>
        <rect class="cls-2" x="333.46" y="201.7" width="1.67" height="3.15"/>
        <rect class="cls-2" x="333.46" y="201.7" width="1.67" height="3.15" transform="translate(131.02 537.56) rotate(-90)"/>
        <rect class="cls-1" x="333.63" y="202.6" width="1.34" height="1.34"/>
        <rect class="cls-1" x="333.94" y="201.89" width=".71" height=".71"/>
        <rect class="cls-1" x="333.94" y="203.94" width=".71" height=".71"/>
        <rect class="cls-1" x="334.97" y="202.91" width=".71" height=".71"/>
        <rect class="cls-1" x="332.92" y="202.91" width=".71" height=".71"/>
      </g>
      <g>
        <rect class="cls-2" x="544.46" y="191.25" width="1.67" height="3.15"/>
        <rect class="cls-2" x="544.46" y="191.25" width="1.67" height="3.15" transform="translate(352.47 738.12) rotate(-90)"/>
        <rect class="cls-1" x="544.63" y="192.15" width="1.34" height="1.34"/>
        <rect class="cls-1" x="544.95" y="191.44" width=".71" height=".71"/>
        <rect class="cls-1" x="544.95" y="193.49" width=".71" height=".71"/>
        <rect class="cls-1" x="545.97" y="192.46" width=".71" height=".71"/>
        <rect class="cls-1" x="543.92" y="192.46" width=".71" height=".71"/>
      </g>
      <g>
        <rect class="cls-2" x="476.39" y="195.23" width="4.71" height="8.88"/>
        <rect class="cls-2" x="476.39" y="195.23" width="4.71" height="8.88" transform="translate(279.08 678.42) rotate(-90)"/>
        <rect class="cls-1" x="476.87" y="197.76" width="3.78" height="3.78"/>
        <rect class="cls-1" x="477.76" y="195.76" width="2.01" height="2.01"/>
        <rect class="cls-1" x="477.76" y="201.54" width="2.01" height="2.01"/>
        <rect class="cls-1" x="480.65" y="198.65" width="2.01" height="2.01"/>
        <rect class="cls-1" x="474.87" y="198.65" width="2.01" height="2.01"/>
      </g>
      <g>
        <rect class="cls-2" x="411.15" y="169.65" width="1.67" height="3.15"/>
        <rect class="cls-2" x="411.15" y="169.65" width="1.67" height="3.15" transform="translate(240.76 583.2) rotate(-90)"/>
        <rect class="cls-1" x="411.32" y="170.55" width="1.34" height="1.34"/>
        <rect class="cls-1" x="411.63" y="169.84" width=".71" height=".71"/>
        <rect class="cls-1" x="411.63" y="171.89" width=".71" height=".71"/>
        <rect class="cls-1" x="412.66" y="170.86" width=".71" height=".71"/>
        <rect class="cls-1" x="410.61" y="170.86" width=".71" height=".71"/>
      </g>
    </g>
    <g id="stars5">
      <g>
        <rect class="cls-2" x="267.3" y="44.09" width="1.67" height="3.15"/>
        <rect class="cls-2" x="267.3" y="44.09" width="1.67" height="3.15" transform="translate(222.47 313.8) rotate(-90)"/>
        <rect class="cls-1" x="267.47" y="44.99" width="1.34" height="1.34"/>
        <rect class="cls-1" x="267.79" y="44.28" width=".71" height=".71"/>
        <rect class="cls-1" x="267.79" y="46.33" width=".71" height=".71"/>
        <rect class="cls-1" x="268.81" y="45.31" width=".71" height=".71"/>
        <rect class="cls-1" x="266.76" y="45.31" width=".71" height=".71"/>
      </g>
      <g>
        <rect class="cls-2" x="448.49" y="42.78" width="1.67" height="3.15"/>
        <rect class="cls-2" x="448.49" y="42.78" width="1.67" height="3.15" transform="translate(404.97 493.68) rotate(-90)"/>
        <rect class="cls-1" x="448.66" y="43.68" width="1.34" height="1.34"/>
        <rect class="cls-1" x="448.98" y="42.97" width=".71" height=".71"/>
        <rect class="cls-1" x="448.98" y="45.02" width=".71" height=".71"/>
        <rect class="cls-1" x="450" y="44" width=".71" height=".71"/>
        <rect class="cls-1" x="447.95" y="44" width=".71" height=".71"/>
      </g>
      <g>
        <rect class="cls-2" x="281.44" y="80.61" width="1.67" height="3.15"/>
        <rect class="cls-2" x="281.44" y="80.61" width="1.67" height="3.15" transform="translate(200.1 364.46) rotate(-90)"/>
        <rect class="cls-1" x="281.61" y="81.51" width="1.34" height="1.34"/>
        <rect class="cls-1" x="281.93" y="80.8" width=".71" height=".71"/>
        <rect class="cls-1" x="281.93" y="82.85" width=".71" height=".71"/>
        <rect class="cls-1" x="282.95" y="81.82" width=".71" height=".71"/>
        <rect class="cls-1" x="280.9" y="81.82" width=".71" height=".71"/>
      </g>
      <g>
        <rect class="cls-2" x="237.52" y="39.52" width="1.67" height="3.15"/>
        <rect class="cls-2" x="237.52" y="39.52" width="1.67" height="3.15" transform="translate(197.25 279.45) rotate(-90)"/>
        <rect class="cls-1" x="237.69" y="40.42" width="1.34" height="1.34"/>
        <rect class="cls-1" x="238" y="39.71" width=".71" height=".71"/>
        <rect class="cls-1" x="238" y="41.76" width=".71" height=".71"/>
        <rect class="cls-1" x="239.03" y="40.74" width=".71" height=".71"/>
        <rect class="cls-1" x="236.98" y="40.74" width=".71" height=".71"/>
      </g>
      <g>
        <rect class="cls-2" x="316.46" y="88.27" width="1.67" height="3.15"/>
        <rect class="cls-2" x="316.46" y="88.27" width="1.67" height="3.15" transform="translate(227.44 407.14) rotate(-90)"/>
        <rect class="cls-1" x="316.63" y="89.17" width="1.34" height="1.34"/>
        <rect class="cls-1" x="316.94" y="88.46" width=".71" height=".71"/>
        <rect class="cls-1" x="316.94" y="90.51" width=".71" height=".71"/>
        <rect class="cls-1" x="317.97" y="89.49" width=".71" height=".71"/>
        <rect class="cls-1" x="315.92" y="89.49" width=".71" height=".71"/>
      </g>
      <g>
        <rect class="cls-2" x="284.39" y="44.59" width="1.67" height="3.15"/>
        <rect class="cls-2" x="284.39" y="44.59" width="1.67" height="3.15" transform="translate(239.07 331.39) rotate(-90)"/>
        <rect class="cls-1" x="284.56" y="45.49" width="1.34" height="1.34"/>
        <rect class="cls-1" x="284.88" y="44.78" width=".71" height=".71"/>
        <rect class="cls-1" x="284.88" y="46.83" width=".71" height=".71"/>
        <rect class="cls-1" x="285.9" y="45.8" width=".71" height=".71"/>
        <rect class="cls-1" x="283.85" y="45.8" width=".71" height=".71"/>
      </g>
      <g>
        <rect class="cls-2" x="235.3" y="57.24" width="4.41" height="8.32"/>
        <rect class="cls-2" x="235.3" y="57.24" width="4.41" height="8.32" transform="translate(176.11 298.9) rotate(-90)"/>
        <rect class="cls-1" x="235.75" y="59.61" width="3.54" height="3.54"/>
        <rect class="cls-1" x="236.58" y="57.74" width="1.88" height="1.88"/>
        <rect class="cls-1" x="236.58" y="63.15" width="1.88" height="1.88"/>
        <rect class="cls-1" x="239.29" y="60.44" width="1.88" height="1.88"/>
        <rect class="cls-1" x="233.87" y="60.44" width="1.88" height="1.88"/>
      </g>
      <g>
        <rect class="cls-2" x="484.74" y="89.84" width="1.67" height="3.15"/>
        <rect class="cls-2" x="484.74" y="89.84" width="1.67" height="3.15" transform="translate(394.16 576.99) rotate(-90)"/>
        <rect class="cls-1" x="484.91" y="90.74" width="1.34" height="1.34"/>
        <rect class="cls-1" x="485.22" y="90.03" width=".71" height=".71"/>
        <rect class="cls-1" x="485.22" y="92.08" width=".71" height=".71"/>
        <rect class="cls-1" x="486.25" y="91.05" width=".71" height=".71"/>
        <rect class="cls-1" x="484.2" y="91.05" width=".71" height=".71"/>
      </g>
      <g>
        <rect class="cls-2" x="465.68" y="64.74" width="1.67" height="3.15"/>
        <rect class="cls-2" x="465.68" y="64.74" width="1.67" height="3.15" transform="translate(400.2 532.83) rotate(-90)"/>
        <rect class="cls-1" x="465.85" y="65.64" width="1.34" height="1.34"/>
        <rect class="cls-1" x="466.16" y="64.93" width=".71" height=".71"/>
        <rect class="cls-1" x="466.16" y="66.98" width=".71" height=".71"/>
        <rect class="cls-1" x="467.19" y="65.95" width=".71" height=".71"/>
        <rect class="cls-1" x="465.14" y="65.95" width=".71" height=".71"/>
      </g>
      <g>
        <rect class="cls-2" x="230.73" y="91.75" width="1.67" height="3.15"/>
        <rect class="cls-2" x="230.73" y="91.75" width="1.67" height="3.15" transform="translate(138.24 324.88) rotate(-90)"/>
        <rect class="cls-1" x="230.9" y="92.65" width="1.34" height="1.34"/>
        <rect class="cls-1" x="231.21" y="91.94" width=".71" height=".71"/>
        <rect class="cls-1" x="231.21" y="93.99" width=".71" height=".71"/>
        <rect class="cls-1" x="232.24" y="92.96" width=".71" height=".71"/>
        <rect class="cls-1" x="230.19" y="92.96" width=".71" height=".71"/>
      </g>
      <g>
        <rect class="cls-2" x="390.62" y="55.95" width="4.53" height="8.54"/>
        <rect class="cls-2" x="390.62" y="55.95" width="4.53" height="8.54" transform="translate(332.66 453.11) rotate(-90)"/>
        <rect class="cls-1" x="391.08" y="58.39" width="3.63" height="3.63"/>
        <rect class="cls-1" x="391.93" y="56.47" width="1.93" height="1.93"/>
        <rect class="cls-1" x="391.93" y="62.03" width="1.93" height="1.93"/>
        <rect class="cls-1" x="394.71" y="59.25" width="1.93" height="1.93"/>
        <rect class="cls-1" x="389.15" y="59.25" width="1.93" height="1.93"/>
      </g>
      <g>
        <rect class="cls-2" x="332.36" y="43.14" width="1.67" height="3.15"/>
        <rect class="cls-2" x="332.36" y="43.14" width="1.67" height="3.15" transform="translate(288.48 377.91) rotate(-90)"/>
        <rect class="cls-1" x="332.53" y="44.04" width="1.34" height="1.34"/>
        <rect class="cls-1" x="332.85" y="43.33" width=".71" height=".71"/>
        <rect class="cls-1" x="332.85" y="45.38" width=".71" height=".71"/>
        <rect class="cls-1" x="333.87" y="44.35" width=".71" height=".71"/>
        <rect class="cls-1" x="331.82" y="44.35" width=".71" height=".71"/>
      </g>
    </g>
    <g id="stars4">
      <g>
        <rect class="cls-2" x="135.31" y="111.75" width="1.67" height="3.15"/>
        <rect class="cls-2" x="135.31" y="111.75" width="1.67" height="3.15" transform="translate(22.81 249.47) rotate(-90)"/>
        <rect class="cls-1" x="135.48" y="112.65" width="1.34" height="1.34"/>
        <rect class="cls-1" x="135.79" y="111.94" width=".71" height=".71"/>
        <rect class="cls-1" x="135.79" y="113.99" width=".71" height=".71"/>
        <rect class="cls-1" x="136.82" y="112.97" width=".71" height=".71"/>
        <rect class="cls-1" x="134.77" y="112.97" width=".71" height=".71"/>
      </g>
      <g>
        <rect class="cls-2" x="88.22" y="118.02" width="1.67" height="3.15"/>
        <rect class="cls-2" x="88.22" y="118.02" width="1.67" height="3.15" transform="translate(-30.54 208.64) rotate(-90)"/>
        <rect class="cls-1" x="88.39" y="118.92" width="1.34" height="1.34"/>
        <rect class="cls-1" x="88.7" y="118.2" width=".71" height=".71"/>
        <rect class="cls-1" x="88.7" y="120.25" width=".71" height=".71"/>
        <rect class="cls-1" x="89.73" y="119.23" width=".71" height=".71"/>
        <rect class="cls-1" x="87.68" y="119.23" width=".71" height=".71"/>
      </g>
      <g>
        <rect class="cls-2" x="209.28" y="93.64" width="1.67" height="3.15"/>
        <rect class="cls-2" x="209.28" y="93.64" width="1.67" height="3.15" transform="translate(114.9 305.32) rotate(-90)"/>
        <rect class="cls-1" x="209.45" y="94.54" width="1.34" height="1.34"/>
        <rect class="cls-1" x="209.76" y="93.83" width=".71" height=".71"/>
        <rect class="cls-1" x="209.76" y="95.88" width=".71" height=".71"/>
        <rect class="cls-1" x="210.78" y="94.85" width=".71" height=".71"/>
        <rect class="cls-1" x="208.73" y="94.85" width=".71" height=".71"/>
      </g>
      <g>
        <rect class="cls-2" x=".74" y="104.77" width="1.67" height="3.15"/>
        <rect class="cls-2" x=".74" y="104.77" width="1.67" height="3.15" transform="translate(-104.77 107.92) rotate(-90)"/>
        <rect class="cls-1" x=".91" y="105.67" width="1.34" height="1.34"/>
        <rect class="cls-1" x="1.22" y="104.96" width=".71" height=".71"/>
        <rect class="cls-1" x="1.22" y="107.01" width=".71" height=".71"/>
        <rect class="cls-1" x="2.25" y="105.99" width=".71" height=".71"/>
        <rect class="cls-1" x=".2" y="105.99" width=".71" height=".71"/>
      </g>
      <g>
        <rect class="cls-2" x="34.75" y="110.55" width="3.68" height="6.94"/>
        <rect class="cls-2" x="34.75" y="110.55" width="3.68" height="6.94" transform="translate(-77.43 150.61) rotate(-90)"/>
        <rect class="cls-1" x="35.13" y="112.53" width="2.95" height="2.95"/>
        <rect class="cls-1" x="35.82" y="110.96" width="1.57" height="1.57"/>
        <rect class="cls-1" x="35.82" y="115.48" width="1.57" height="1.57"/>
        <rect class="cls-1" x="38.08" y="113.22" width="1.57" height="1.57"/>
        <rect class="cls-1" x="33.56" y="113.22" width="1.57" height="1.57"/>
      </g>
      <g>
        <rect class="cls-2" x="150.7" y="92.05" width="1.67" height="3.15"/>
        <rect class="cls-2" x="150.7" y="92.05" width="1.67" height="3.15" transform="translate(57.9 245.16) rotate(-90)"/>
        <rect class="cls-1" x="150.87" y="92.95" width="1.34" height="1.34"/>
        <rect class="cls-1" x="151.18" y="92.24" width=".71" height=".71"/>
        <rect class="cls-1" x="151.18" y="94.29" width=".71" height=".71"/>
        <rect class="cls-1" x="152.2" y="93.27" width=".71" height=".71"/>
        <rect class="cls-1" x="150.15" y="93.27" width=".71" height=".71"/>
      </g>
      <g>
        <rect class="cls-2" x="204.04" y="114.01" width="1.67" height="3.15"/>
        <rect class="cls-2" x="204.04" y="114.01" width="1.67" height="3.15" transform="translate(89.29 320.46) rotate(-90)"/>
        <rect class="cls-1" x="204.21" y="114.91" width="1.34" height="1.34"/>
        <rect class="cls-1" x="204.52" y="114.2" width=".71" height=".71"/>
        <rect class="cls-1" x="204.52" y="116.25" width=".71" height=".71"/>
        <rect class="cls-1" x="205.55" y="115.22" width=".71" height=".71"/>
        <rect class="cls-1" x="203.5" y="115.22" width=".71" height=".71"/>
      </g>
      <g>
        <rect class="cls-2" x="158.7" y="118.96" width="1.67" height="3.15"/>
        <rect class="cls-2" x="158.7" y="118.96" width="1.67" height="3.15" transform="translate(39 280.06) rotate(-90)"/>
        <rect class="cls-1" x="158.87" y="119.86" width="1.34" height="1.34"/>
        <rect class="cls-1" x="159.18" y="119.15" width=".71" height=".71"/>
        <rect class="cls-1" x="159.18" y="121.2" width=".71" height=".71"/>
        <rect class="cls-1" x="160.21" y="120.17" width=".71" height=".71"/>
        <rect class="cls-1" x="158.15" y="120.17" width=".71" height=".71"/>
      </g>
      <g>
        <rect class="cls-2" x="177.49" y="122.47" width="1.67" height="3.15"/>
        <rect class="cls-2" x="177.49" y="122.47" width="1.67" height="3.15" transform="translate(54.28 302.38) rotate(-90)"/>
        <rect class="cls-1" x="177.66" y="123.37" width="1.34" height="1.34"/>
        <rect class="cls-1" x="177.98" y="122.66" width=".71" height=".71"/>
        <rect class="cls-1" x="177.98" y="124.71" width=".71" height=".71"/>
        <rect class="cls-1" x="179" y="123.69" width=".71" height=".71"/>
        <rect class="cls-1" x="176.95" y="123.69" width=".71" height=".71"/>
      </g>
      <g>
        <rect class="cls-2" x="184.98" y="88.91" width="1.67" height="3.15"/>
        <rect class="cls-2" x="184.98" y="88.91" width="1.67" height="3.15" transform="translate(95.33 276.29) rotate(-90)"/>
        <rect class="cls-1" x="185.15" y="89.81" width="1.34" height="1.34"/>
        <rect class="cls-1" x="185.46" y="89.1" width=".71" height=".71"/>
        <rect class="cls-1" x="185.46" y="91.15" width=".71" height=".71"/>
        <rect class="cls-1" x="186.49" y="90.12" width=".71" height=".71"/>
        <rect class="cls-1" x="184.43" y="90.12" width=".71" height=".71"/>
      </g>
      <g>
        <rect class="cls-2" x="199.58" y="70.32" width="1.67" height="3.15"/>
        <rect class="cls-2" x="199.58" y="70.32" width="1.67" height="3.15" transform="translate(128.51 272.31) rotate(-90)"/>
        <rect class="cls-1" x="199.75" y="71.22" width="1.34" height="1.34"/>
        <rect class="cls-1" x="200.06" y="70.51" width=".71" height=".71"/>
        <rect class="cls-1" x="200.06" y="72.56" width=".71" height=".71"/>
        <rect class="cls-1" x="201.09" y="71.54" width=".71" height=".71"/>
        <rect class="cls-1" x="199.04" y="71.54" width=".71" height=".71"/>
      </g>
    </g>
    <g id="stars3">
      <g>
        <rect class="cls-2" x="561.12" y="42.2" width="1.67" height="3.15" transform="translate(1123.91 87.55) rotate(180)"/>
        <rect class="cls-2" x="561.12" y="42.2" width="1.67" height="3.15" transform="translate(605.73 -518.18) rotate(90)"/>
        <rect class="cls-1" x="561.28" y="43.11" width="1.34" height="1.34" transform="translate(1123.9 87.56) rotate(180)"/>
        <rect class="cls-1" x="561.6" y="44.45" width=".71" height=".71" transform="translate(1123.9 89.61) rotate(180)"/>
        <rect class="cls-1" x="561.6" y="42.4" width=".71" height=".71" transform="translate(1123.9 85.51) rotate(180)"/>
        <rect class="cls-1" x="560.57" y="43.43" width=".71" height=".71" transform="translate(1121.85 87.56) rotate(180)"/>
        <rect class="cls-1" x="562.62" y="43.43" width=".71" height=".71" transform="translate(1125.95 87.56) rotate(180)"/>
      </g>
      <g>
        <rect class="cls-2" x="608.21" y="35.94" width="1.67" height="3.15" transform="translate(1218.09 75.03) rotate(180)"/>
        <rect class="cls-2" x="608.21" y="35.94" width="1.67" height="3.15" transform="translate(646.56 -571.53) rotate(90)"/>
        <rect class="cls-1" x="608.37" y="36.85" width="1.34" height="1.34" transform="translate(1218.08 75.04) rotate(180)"/>
        <rect class="cls-1" x="608.69" y="38.19" width=".71" height=".71" transform="translate(1218.08 77.09) rotate(180)"/>
        <rect class="cls-1" x="608.69" y="36.14" width=".71" height=".71" transform="translate(1218.08 72.99) rotate(180)"/>
        <rect class="cls-1" x="607.66" y="37.16" width=".71" height=".71" transform="translate(1216.03 75.04) rotate(180)"/>
        <rect class="cls-1" x="609.71" y="37.16" width=".71" height=".71" transform="translate(1220.13 75.04) rotate(180)"/>
      </g>
      <g>
        <rect class="cls-2" x="695.69" y="49.18" width="1.67" height="3.15" transform="translate(1393.05 101.51) rotate(180)"/>
        <rect class="cls-2" x="695.69" y="49.18" width="1.67" height="3.15" transform="translate(747.28 -645.77) rotate(90)"/>
        <rect class="cls-1" x="695.85" y="50.09" width="1.34" height="1.34" transform="translate(1393.04 101.52) rotate(180)"/>
        <rect class="cls-1" x="696.16" y="51.43" width=".71" height=".71" transform="translate(1393.04 103.57) rotate(180)"/>
        <rect class="cls-1" x="696.16" y="49.38" width=".71" height=".71" transform="translate(1393.04 99.47) rotate(180)"/>
        <rect class="cls-1" x="695.14" y="50.41" width=".71" height=".71" transform="translate(1390.99 101.52) rotate(180)"/>
        <rect class="cls-1" x="697.19" y="50.41" width=".71" height=".71" transform="translate(1395.09 101.52) rotate(180)"/>
      </g>
      <g>
        <rect class="cls-2" x="660.68" y="41.51" width="1.67" height="3.15" transform="translate(1323.02 86.18) rotate(180)"/>
        <rect class="cls-2" x="660.68" y="41.51" width="1.67" height="3.15" transform="translate(704.6 -618.42) rotate(90)"/>
        <rect class="cls-1" x="660.83" y="42.42" width="1.34" height="1.34" transform="translate(1323.01 86.19) rotate(180)"/>
        <rect class="cls-1" x="661.15" y="43.76" width=".71" height=".71" transform="translate(1323.01 88.24) rotate(180)"/>
        <rect class="cls-1" x="661.15" y="41.71" width=".71" height=".71" transform="translate(1323.01 84.14) rotate(180)"/>
        <rect class="cls-1" x="660.12" y="42.74" width=".71" height=".71" transform="translate(1320.96 86.19) rotate(180)"/>
        <rect class="cls-1" x="662.17" y="42.74" width=".71" height=".71" transform="translate(1325.06 86.19) rotate(180)"/>
      </g>
      <g>
        <rect class="cls-2" x="545.73" y="61.9" width="1.67" height="3.15" transform="translate(1093.14 126.96) rotate(180)"/>
        <rect class="cls-2" x="545.73" y="61.9" width="1.67" height="3.15" transform="translate(610.05 -483.09) rotate(90)"/>
        <rect class="cls-1" x="545.89" y="62.81" width="1.34" height="1.34" transform="translate(1093.13 126.97) rotate(180)"/>
        <rect class="cls-1" x="546.21" y="64.15" width=".71" height=".71" transform="translate(1093.13 129.02) rotate(180)"/>
        <rect class="cls-1" x="546.21" y="62.1" width=".71" height=".71" transform="translate(1093.13 124.92) rotate(180)"/>
        <rect class="cls-1" x="545.18" y="63.13" width=".71" height=".71" transform="translate(1091.08 126.97) rotate(180)"/>
        <rect class="cls-1" x="547.23" y="63.13" width=".71" height=".71" transform="translate(1095.18 126.97) rotate(180)"/>
      </g>
      <g>
        <rect class="cls-2" x="692.74" y="85.2" width="1.67" height="3.15" transform="translate(1387.15 173.55) rotate(180)"/>
        <rect class="cls-2" x="692.74" y="85.2" width="1.67" height="3.15" transform="translate(780.35 -606.8) rotate(90)"/>
        <rect class="cls-1" x="692.9" y="86.11" width="1.34" height="1.34" transform="translate(1387.14 173.56) rotate(180)"/>
        <rect class="cls-1" x="693.21" y="87.45" width=".71" height=".71" transform="translate(1387.14 175.61) rotate(180)"/>
        <rect class="cls-1" x="693.21" y="85.4" width=".71" height=".71" transform="translate(1387.14 171.51) rotate(180)"/>
        <rect class="cls-1" x="692.19" y="86.43" width=".71" height=".71" transform="translate(1385.09 173.56) rotate(180)"/>
        <rect class="cls-1" x="694.24" y="86.43" width=".71" height=".71" transform="translate(1389.19 173.56) rotate(180)"/>
      </g>
      <g>
        <rect class="cls-2" x="492.39" y="39.95" width="1.67" height="3.15" transform="translate(986.45 83.05) rotate(180)"/>
        <rect class="cls-2" x="492.39" y="39.95" width="1.67" height="3.15" transform="translate(534.75 -451.7) rotate(90)"/>
        <rect class="cls-1" x="492.55" y="40.86" width="1.34" height="1.34" transform="translate(986.44 83.06) rotate(180)"/>
        <rect class="cls-1" x="492.87" y="42.2" width=".71" height=".71" transform="translate(986.44 85.11) rotate(180)"/>
        <rect class="cls-1" x="492.87" y="40.15" width=".71" height=".71" transform="translate(986.44 81.01) rotate(180)"/>
        <rect class="cls-1" x="491.84" y="41.17" width=".71" height=".71" transform="translate(984.39 83.06) rotate(180)"/>
        <rect class="cls-1" x="493.89" y="41.17" width=".71" height=".71" transform="translate(988.49 83.06) rotate(180)"/>
      </g>
      <g>
        <rect class="cls-2" x="722.46" y="54.6" width="1.67" height="3.15" transform="translate(1446.59 112.35) rotate(180)"/>
        <rect class="cls-2" x="722.46" y="54.6" width="1.67" height="3.15" transform="translate(779.47 -667.12) rotate(90)"/>
        <rect class="cls-1" x="722.62" y="55.51" width="1.34" height="1.34" transform="translate(1446.58 112.36) rotate(180)"/>
        <rect class="cls-1" x="722.93" y="56.85" width=".71" height=".71" transform="translate(1446.58 114.41) rotate(180)"/>
        <rect class="cls-1" x="722.93" y="54.8" width=".71" height=".71" transform="translate(1446.58 110.31) rotate(180)"/>
        <rect class="cls-1" x="721.91" y="55.82" width=".71" height=".71" transform="translate(1444.53 112.36) rotate(180)"/>
        <rect class="cls-1" x="723.96" y="55.82" width=".71" height=".71" transform="translate(1448.63 112.36) rotate(180)"/>
      </g>
      <g>
        <rect class="cls-2" x="511.45" y="65.05" width="1.67" height="3.15" transform="translate(1024.58 133.25) rotate(180)"/>
        <rect class="cls-2" x="511.45" y="65.05" width="1.67" height="3.15" transform="translate(578.91 -445.66) rotate(90)"/>
        <rect class="cls-1" x="511.61" y="65.96" width="1.34" height="1.34" transform="translate(1024.57 133.26) rotate(180)"/>
        <rect class="cls-1" x="511.93" y="67.3" width=".71" height=".71" transform="translate(1024.57 135.31) rotate(180)"/>
        <rect class="cls-1" x="511.93" y="65.25" width=".71" height=".71" transform="translate(1024.57 131.21) rotate(180)"/>
        <rect class="cls-1" x="510.9" y="66.27" width=".71" height=".71" transform="translate(1022.52 133.26) rotate(180)"/>
        <rect class="cls-1" x="512.95" y="66.27" width=".71" height=".71" transform="translate(1026.62 133.26) rotate(180)"/>
      </g>
      <g>
        <rect class="cls-2" x="576.48" y="55.34" width="4.71" height="8.88" transform="translate(1157.68 119.56) rotate(180)"/>
        <rect class="cls-2" x="576.48" y="55.34" width="4.71" height="8.88" transform="translate(638.62 -519.06) rotate(90)"/>
        <rect class="cls-1" x="576.93" y="57.9" width="3.78" height="3.78" transform="translate(1157.65 119.59) rotate(180)"/>
        <rect class="cls-1" x="577.82" y="61.68" width="2.01" height="2.01" transform="translate(1157.65 125.37) rotate(180)"/>
        <rect class="cls-1" x="577.82" y="55.9" width="2.01" height="2.01" transform="translate(1157.65 113.8) rotate(180)"/>
        <rect class="cls-1" x="574.93" y="58.79" width="2.01" height="2.01" transform="translate(1151.86 119.59) rotate(180)"/>
        <rect class="cls-1" x="580.71" y="58.79" width="2.01" height="2.01" transform="translate(1163.43 119.59) rotate(180)"/>
      </g>
      <g>
        <rect class="cls-2" x="644.77" y="86.65" width="1.67" height="3.15" transform="translate(1291.21 176.45) rotate(180)"/>
        <rect class="cls-2" x="644.77" y="86.65" width="1.67" height="3.15" transform="translate(733.83 -557.38) rotate(90)"/>
        <rect class="cls-1" x="644.93" y="87.56" width="1.34" height="1.34" transform="translate(1291.2 176.46) rotate(180)"/>
        <rect class="cls-1" x="645.24" y="88.9" width=".71" height=".71" transform="translate(1291.2 178.51) rotate(180)"/>
        <rect class="cls-1" x="645.24" y="86.85" width=".71" height=".71" transform="translate(1291.2 174.41) rotate(180)"/>
        <rect class="cls-1" x="644.22" y="87.87" width=".71" height=".71" transform="translate(1289.15 176.46) rotate(180)"/>
        <rect class="cls-1" x="646.27" y="87.87" width=".71" height=".71" transform="translate(1293.25 176.46) rotate(180)"/>
      </g>
    </g>
    <g id="stars2">
      <g>
        <rect class="cls-2" x="363.27" y="104.53" width="1.67" height="3.15" transform="translate(728.21 212.21) rotate(180)"/>
        <rect class="cls-2" x="363.27" y="104.53" width="1.67" height="3.15" transform="translate(470.21 -258) rotate(90)"/>
        <rect class="cls-1" x="363.43" y="105.44" width="1.34" height="1.34" transform="translate(728.2 212.22) rotate(180)"/>
        <rect class="cls-1" x="363.74" y="106.78" width=".71" height=".71" transform="translate(728.2 214.28) rotate(180)"/>
        <rect class="cls-1" x="363.74" y="104.73" width=".71" height=".71" transform="translate(728.2 210.17) rotate(180)"/>
        <rect class="cls-1" x="362.72" y="105.76" width=".71" height=".71" transform="translate(726.15 212.22) rotate(180)"/>
        <rect class="cls-1" x="364.77" y="105.76" width=".71" height=".71" transform="translate(730.25 212.22) rotate(180)"/>
      </g>
      <g>
        <rect class="cls-2" x="330.26" y="118.74" width="1.67" height="3.15" transform="translate(662.2 240.64) rotate(180)"/>
        <rect class="cls-2" x="330.26" y="118.74" width="1.67" height="3.15" transform="translate(451.42 -210.78) rotate(90)"/>
        <rect class="cls-1" x="330.42" y="119.65" width="1.34" height="1.34" transform="translate(662.19 240.65) rotate(180)"/>
        <rect class="cls-1" x="330.74" y="120.99" width=".71" height=".71" transform="translate(662.19 242.7) rotate(180)"/>
        <rect class="cls-1" x="330.74" y="118.94" width=".71" height=".71" transform="translate(662.19 238.6) rotate(180)"/>
        <rect class="cls-1" x="329.71" y="119.97" width=".71" height=".71" transform="translate(660.14 240.65) rotate(180)"/>
        <rect class="cls-1" x="331.76" y="119.97" width=".71" height=".71" transform="translate(664.24 240.65) rotate(180)"/>
      </g>
      <g>
        <rect class="cls-2" x="500.69" y="105.58" width="1.67" height="3.15" transform="translate(1003.06 214.32) rotate(180)"/>
        <rect class="cls-2" x="500.69" y="105.58" width="1.67" height="3.15" transform="translate(608.69 -394.37) rotate(90)"/>
        <rect class="cls-1" x="500.85" y="106.49" width="1.34" height="1.34" transform="translate(1003.05 214.33) rotate(180)"/>
        <rect class="cls-1" x="501.17" y="107.83" width=".71" height=".71" transform="translate(1003.05 216.38) rotate(180)"/>
        <rect class="cls-1" x="501.17" y="105.78" width=".71" height=".71" transform="translate(1003.05 212.28) rotate(180)"/>
        <rect class="cls-1" x="500.14" y="106.81" width=".71" height=".71" transform="translate(1001 214.33) rotate(180)"/>
        <rect class="cls-1" x="502.19" y="106.81" width=".71" height=".71" transform="translate(1005.1 214.33) rotate(180)"/>
      </g>
      <g>
        <rect class="cls-2" x="462.82" y="103.84" width="1.67" height="3.15" transform="translate(927.31 210.84) rotate(180)"/>
        <rect class="cls-2" x="462.82" y="103.84" width="1.67" height="3.15" transform="translate(569.08 -358.24) rotate(90)"/>
        <rect class="cls-1" x="462.98" y="104.75" width="1.34" height="1.34" transform="translate(927.3 210.85) rotate(180)"/>
        <rect class="cls-1" x="463.3" y="106.09" width=".71" height=".71" transform="translate(927.3 212.9) rotate(180)"/>
        <rect class="cls-1" x="463.3" y="104.04" width=".71" height=".71" transform="translate(927.3 208.8) rotate(180)"/>
        <rect class="cls-1" x="462.27" y="105.07" width=".71" height=".71" transform="translate(925.25 210.85) rotate(180)"/>
        <rect class="cls-1" x="464.32" y="105.07" width=".71" height=".71" transform="translate(929.35 210.85) rotate(180)"/>
      </g>
      <g>
        <rect class="cls-2" x="347.65" y="119.6" width="3.52" height="6.65" transform="translate(698.83 245.85) rotate(180)"/>
        <rect class="cls-2" x="347.65" y="119.6" width="3.52" height="6.65" transform="translate(472.34 -226.49) rotate(90)"/>
        <rect class="cls-1" x="347.99" y="121.52" width="2.83" height="2.83" transform="translate(698.81 245.87) rotate(180)"/>
        <rect class="cls-1" x="348.65" y="124.35" width="1.5" height="1.5" transform="translate(698.81 250.2) rotate(180)"/>
        <rect class="cls-1" x="348.65" y="120.02" width="1.5" height="1.5" transform="translate(698.81 241.54) rotate(180)"/>
        <rect class="cls-1" x="346.49" y="122.18" width="1.5" height="1.5" transform="translate(694.48 245.87) rotate(180)"/>
        <rect class="cls-1" x="350.82" y="122.18" width="1.5" height="1.5" transform="translate(703.14 245.87) rotate(180)"/>
      </g>
      <g>
        <rect class="cls-2" x="294.54" y="102.28" width="1.67" height="3.15" transform="translate(590.75 207.71) rotate(180)"/>
        <rect class="cls-2" x="294.54" y="102.28" width="1.67" height="3.15" transform="translate(399.23 -191.52) rotate(90)"/>
        <rect class="cls-1" x="294.7" y="103.19" width="1.34" height="1.34" transform="translate(590.74 207.72) rotate(180)"/>
        <rect class="cls-1" x="295.01" y="104.53" width=".71" height=".71" transform="translate(590.74 209.77) rotate(180)"/>
        <rect class="cls-1" x="295.01" y="102.48" width=".71" height=".71" transform="translate(590.74 205.67) rotate(180)"/>
        <rect class="cls-1" x="293.99" y="103.5" width=".71" height=".71" transform="translate(588.69 207.72) rotate(180)"/>
        <rect class="cls-1" x="296.04" y="103.5" width=".71" height=".71" transform="translate(592.79 207.72) rotate(180)"/>
      </g>
      <g>
        <rect class="cls-2" x="339.88" y="97.33" width="1.67" height="3.15" transform="translate(681.43 197.81) rotate(180)"/>
        <rect class="cls-2" x="339.88" y="97.33" width="1.67" height="3.15" transform="translate(439.62 -241.81) rotate(90)"/>
        <rect class="cls-1" x="340.04" y="98.24" width="1.34" height="1.34" transform="translate(681.42 197.82) rotate(180)"/>
        <rect class="cls-1" x="340.36" y="99.58" width=".71" height=".71" transform="translate(681.42 199.87) rotate(180)"/>
        <rect class="cls-1" x="340.36" y="97.53" width=".71" height=".71" transform="translate(681.42 195.77) rotate(180)"/>
        <rect class="cls-1" x="339.33" y="98.55" width=".71" height=".71" transform="translate(679.37 197.82) rotate(180)"/>
        <rect class="cls-1" x="341.38" y="98.55" width=".71" height=".71" transform="translate(683.47 197.82) rotate(180)"/>
      </g>
      <g>
        <rect class="cls-2" x="321.08" y="93.81" width="1.67" height="3.15" transform="translate(643.84 190.78) rotate(180)"/>
        <rect class="cls-2" x="321.08" y="93.81" width="1.67" height="3.15" transform="translate(417.31 -226.53) rotate(90)"/>
        <rect class="cls-1" x="321.24" y="94.72" width="1.34" height="1.34" transform="translate(643.83 190.79) rotate(180)"/>
        <rect class="cls-1" x="321.56" y="96.06" width=".71" height=".71" transform="translate(643.83 192.84) rotate(180)"/>
        <rect class="cls-1" x="321.56" y="94.01" width=".71" height=".71" transform="translate(643.83 188.74) rotate(180)"/>
        <rect class="cls-1" x="320.53" y="95.04" width=".71" height=".71" transform="translate(641.78 190.79) rotate(180)"/>
        <rect class="cls-1" x="322.58" y="95.04" width=".71" height=".71" transform="translate(645.88 190.79) rotate(180)"/>
      </g>
      <g>
        <rect class="cls-2" x="548.55" y="100.37" width="1.67" height="3.15" transform="translate(1098.77 203.89) rotate(180)"/>
        <rect class="cls-2" x="548.55" y="100.37" width="1.67" height="3.15" transform="translate(651.33 -447.44) rotate(90)"/>
        <rect class="cls-1" x="548.71" y="101.28" width="1.34" height="1.34" transform="translate(1098.76 203.9) rotate(180)"/>
        <rect class="cls-1" x="549.03" y="102.62" width=".71" height=".71" transform="translate(1098.76 205.95) rotate(180)"/>
        <rect class="cls-1" x="549.03" y="100.57" width=".71" height=".71" transform="translate(1098.76 201.85) rotate(180)"/>
        <rect class="cls-1" x="548" y="101.6" width=".71" height=".71" transform="translate(1096.71 203.9) rotate(180)"/>
        <rect class="cls-1" x="550.05" y="101.6" width=".71" height=".71" transform="translate(1100.81 203.9) rotate(180)"/>
      </g>
      <g>
        <rect class="cls-2" x="446.39" y="118.39" width="1.67" height="3.15" transform="translate(894.46 239.93) rotate(180)"/>
        <rect class="cls-2" x="446.39" y="118.39" width="1.67" height="3.15" transform="translate(567.19 -327.26) rotate(90)"/>
        <rect class="cls-1" x="446.55" y="119.3" width="1.34" height="1.34" transform="translate(894.45 239.94) rotate(180)"/>
        <rect class="cls-1" x="446.87" y="120.64" width=".71" height=".71" transform="translate(894.45 241.99) rotate(180)"/>
        <rect class="cls-1" x="446.87" y="118.59" width=".71" height=".71" transform="translate(894.45 237.89) rotate(180)"/>
        <rect class="cls-1" x="445.84" y="119.61" width=".71" height=".71" transform="translate(892.4 239.94) rotate(180)"/>
        <rect class="cls-1" x="447.89" y="119.61" width=".71" height=".71" transform="translate(896.5 239.94) rotate(180)"/>
      </g>
      <g>
        <rect class="cls-2" x="419.02" y="108.61" width="1.67" height="3.15" transform="translate(839.71 220.36) rotate(180)"/>
        <rect class="cls-2" x="419.02" y="108.61" width="1.67" height="3.15" transform="translate(530.04 -309.67) rotate(90)"/>
        <rect class="cls-1" x="419.18" y="109.52" width="1.34" height="1.34" transform="translate(839.7 220.37) rotate(180)"/>
        <rect class="cls-1" x="419.5" y="110.86" width=".71" height=".71" transform="translate(839.7 222.43) rotate(180)"/>
        <rect class="cls-1" x="419.5" y="108.81" width=".71" height=".71" transform="translate(839.7 218.32) rotate(180)"/>
        <rect class="cls-1" x="418.47" y="109.83" width=".71" height=".71" transform="translate(837.65 220.37) rotate(180)"/>
        <rect class="cls-1" x="420.52" y="109.83" width=".71" height=".71" transform="translate(841.75 220.37) rotate(180)"/>
      </g>
      <g>
        <rect class="cls-2" x="298.47" y="115.37" width="1.67" height="3.15" transform="translate(598.62 233.89) rotate(180)"/>
        <rect class="cls-2" x="298.47" y="115.37" width="1.67" height="3.15" transform="translate(416.26 -182.36) rotate(90)"/>
        <rect class="cls-1" x="298.63" y="116.28" width="1.34" height="1.34" transform="translate(598.61 233.91) rotate(180)"/>
        <rect class="cls-1" x="298.95" y="117.62" width=".71" height=".71" transform="translate(598.61 235.96) rotate(180)"/>
        <rect class="cls-1" x="298.95" y="115.57" width=".71" height=".71" transform="translate(598.61 231.85) rotate(180)"/>
        <rect class="cls-1" x="297.92" y="116.6" width=".71" height=".71" transform="translate(596.56 233.91) rotate(180)"/>
        <rect class="cls-1" x="299.97" y="116.6" width=".71" height=".71" transform="translate(600.66 233.91) rotate(180)"/>
      </g>
    </g>
    <g id="stars1">
      <g>
        <rect class="cls-2" x="632.71" y="133.28" width="1.67" height="3.15" transform="translate(1280.12 173.62) rotate(171.41)"/>
        <rect class="cls-2" x="632.71" y="133.28" width="1.67" height="3.15" transform="translate(672.31 -511.72) rotate(81.41)"/>
        <rect class="cls-1" x="632.87" y="134.19" width="1.34" height="1.34" transform="translate(1280.11 173.63) rotate(171.41)"/>
        <rect class="cls-1" x="633.34" y="135.52" width=".71" height=".71" transform="translate(1280.57 175.63) rotate(171.41)"/>
        <rect class="cls-1" x="633.03" y="133.49" width=".71" height=".71" transform="translate(1279.66 171.64) rotate(171.41)"/>
        <rect class="cls-1" x="632.17" y="134.66" width=".71" height=".71" transform="translate(1278.12 174.09) rotate(171.41)"/>
        <rect class="cls-1" x="634.2" y="134.35" width=".71" height=".71" transform="translate(1282.1 173.18) rotate(171.41)"/>
      </g>
      <g>
        <rect class="cls-2" x="602.2" y="152.26" width="1.67" height="3.15" transform="translate(1222.27 215.92) rotate(171.41)"/>
        <rect class="cls-2" x="602.2" y="152.26" width="1.67" height="3.15" transform="translate(665.12 -465.4) rotate(81.41)"/>
        <rect class="cls-1" x="602.36" y="153.17" width="1.34" height="1.34" transform="translate(1222.26 215.94) rotate(171.41)"/>
        <rect class="cls-1" x="602.82" y="154.5" width=".71" height=".71" transform="translate(1222.72 217.93) rotate(171.41)"/>
        <rect class="cls-1" x="602.52" y="152.47" width=".71" height=".71" transform="translate(1221.8 213.94) rotate(171.41)"/>
        <rect class="cls-1" x="601.66" y="153.64" width=".71" height=".71" transform="translate(1220.27 216.39) rotate(171.41)"/>
        <rect class="cls-1" x="603.68" y="153.33" width=".71" height=".71" transform="translate(1224.25 215.48) rotate(171.41)"/>
      </g>
      <g>
        <rect class="cls-2" x="768.75" y="113.81" width="1.67" height="3.15" transform="translate(1547.77 114.58) rotate(171.41)"/>
        <rect class="cls-2" x="768.75" y="113.81" width="1.67" height="3.15" transform="translate(768.78 -662.81) rotate(81.41)"/>
        <rect class="cls-1" x="768.91" y="114.72" width="1.34" height="1.34" transform="translate(1547.76 114.59) rotate(171.41)"/>
        <rect class="cls-1" x="769.38" y="116.04" width=".71" height=".71" transform="translate(1548.22 116.58) rotate(171.41)"/>
        <rect class="cls-1" x="769.07" y="114.02" width=".71" height=".71" transform="translate(1547.31 112.6) rotate(171.41)"/>
        <rect class="cls-1" x="768.21" y="115.18" width=".71" height=".71" transform="translate(1545.77 115.05) rotate(171.41)"/>
        <rect class="cls-1" x="770.24" y="114.88" width=".71" height=".71" transform="translate(1549.76 114.14) rotate(171.41)"/>
      </g>
      <g>
        <rect class="cls-2" x="731.04" y="117.74" width="1.67" height="3.15" transform="translate(1473.37 128.03) rotate(171.41)"/>
        <rect class="cls-2" x="731.04" y="117.74" width="1.67" height="3.15" transform="translate(740.59 -622.18) rotate(81.41)"/>
        <rect class="cls-1" x="731.2" y="118.65" width="1.34" height="1.34" transform="translate(1473.36 128.04) rotate(171.41)"/>
        <rect class="cls-1" x="731.67" y="119.98" width=".71" height=".71" transform="translate(1473.81 130.04) rotate(171.41)"/>
        <rect class="cls-1" x="731.37" y="117.95" width=".71" height=".71" transform="translate(1472.9 126.05) rotate(171.41)"/>
        <rect class="cls-1" x="730.5" y="119.12" width=".71" height=".71" transform="translate(1471.37 128.5) rotate(171.41)"/>
        <rect class="cls-1" x="732.53" y="118.81" width=".71" height=".71" transform="translate(1475.35 127.59) rotate(171.41)"/>
      </g>
      <g>
        <rect class="cls-2" x="619.77" y="150.35" width="3.52" height="6.65" transform="translate(1259.04 212.85) rotate(171.41)"/>
        <rect class="cls-2" x="619.77" y="150.35" width="3.52" height="6.65" transform="translate(680.7 -483.83) rotate(81.41)"/>
        <rect class="cls-1" x="620.11" y="152.28" width="2.83" height="2.83" transform="translate(1259.02 212.87) rotate(171.41)"/>
        <rect class="cls-1" x="621.09" y="155.08" width="1.5" height="1.5" transform="translate(1259.98 217.08) rotate(171.41)"/>
        <rect class="cls-1" x="620.45" y="150.8" width="1.5" height="1.5" transform="translate(1258.06 208.66) rotate(171.41)"/>
        <rect class="cls-1" x="618.63" y="153.26" width="1.5" height="1.5" transform="translate(1254.81 213.84) rotate(171.41)"/>
        <rect class="cls-1" x="622.91" y="152.62" width="1.5" height="1.5" transform="translate(1263.23 211.91) rotate(171.41)"/>
      </g>
      <g>
        <rect class="cls-2" x="564.41" y="141.31" width="1.67" height="3.15" transform="translate(1145.49 199.79) rotate(171.41)"/>
        <rect class="cls-2" x="564.41" y="141.31" width="1.67" height="3.15" transform="translate(622.15 -437.36) rotate(81.41)"/>
        <rect class="cls-1" x="564.57" y="142.22" width="1.34" height="1.34" transform="translate(1145.48 199.8) rotate(171.41)"/>
        <rect class="cls-1" x="565.04" y="143.55" width=".71" height=".71" transform="translate(1145.94 201.8) rotate(171.41)"/>
        <rect class="cls-1" x="564.73" y="141.52" width=".71" height=".71" transform="translate(1145.03 197.81) rotate(171.41)"/>
        <rect class="cls-1" x="563.87" y="142.69" width=".71" height=".71" transform="translate(1143.49 200.26) rotate(171.41)"/>
        <rect class="cls-1" x="565.9" y="142.39" width=".71" height=".71" transform="translate(1147.48 199.35) rotate(171.41)"/>
      </g>
      <g>
        <rect class="cls-2" x="608.51" y="129.65" width="1.67" height="3.15" transform="translate(1231.45 170.01) rotate(171.41)"/>
        <rect class="cls-2" x="608.51" y="129.65" width="1.67" height="3.15" transform="translate(648.13 -490.88) rotate(81.41)"/>
        <rect class="cls-1" x="608.67" y="130.56" width="1.34" height="1.34" transform="translate(1231.44 170.02) rotate(171.41)"/>
        <rect class="cls-1" x="609.14" y="131.89" width=".71" height=".71" transform="translate(1231.89 172.02) rotate(171.41)"/>
        <rect class="cls-1" x="608.83" y="129.86" width=".71" height=".71" transform="translate(1230.98 168.03) rotate(171.41)"/>
        <rect class="cls-1" x="607.97" y="131.03" width=".71" height=".71" transform="translate(1229.44 170.48) rotate(171.41)"/>
        <rect class="cls-1" x="610" y="130.72" width=".71" height=".71" transform="translate(1233.43 169.57) rotate(171.41)"/>
      </g>
      <g>
        <rect class="cls-2" x="589.4" y="128.98" width="1.67" height="3.15" transform="translate(1193.34 171.53) rotate(171.41)"/>
        <rect class="cls-2" x="589.4" y="128.98" width="1.67" height="3.15" transform="translate(631.21 -472.55) rotate(81.41)"/>
        <rect class="cls-1" x="589.56" y="129.89" width="1.34" height="1.34" transform="translate(1193.33 171.55) rotate(171.41)"/>
        <rect class="cls-1" x="590.02" y="131.22" width=".71" height=".71" transform="translate(1193.78 173.54) rotate(171.41)"/>
        <rect class="cls-1" x="589.72" y="129.19" width=".71" height=".71" transform="translate(1192.87 169.55) rotate(171.41)"/>
        <rect class="cls-1" x="588.86" y="130.36" width=".71" height=".71" transform="translate(1191.34 172) rotate(171.41)"/>
        <rect class="cls-1" x="590.88" y="130.05" width=".71" height=".71" transform="translate(1195.32 171.09) rotate(171.41)"/>
      </g>
      <g>
        <rect class="cls-2" x="815.29" y="101.51" width="1.67" height="3.15" transform="translate(1638.5 83.17) rotate(171.41)"/>
        <rect class="cls-2" x="815.29" y="101.51" width="1.67" height="3.15" transform="translate(796.22 -719.29) rotate(81.41)"/>
        <rect class="cls-1" x="815.45" y="102.42" width="1.34" height="1.34" transform="translate(1638.49 83.18) rotate(171.41)"/>
        <rect class="cls-1" x="815.92" y="103.75" width=".71" height=".71" transform="translate(1638.95 85.18) rotate(171.41)"/>
        <rect class="cls-1" x="815.62" y="101.72" width=".71" height=".71" transform="translate(1638.04 81.19) rotate(171.41)"/>
        <rect class="cls-1" x="814.75" y="102.88" width=".71" height=".71" transform="translate(1636.5 83.64) rotate(171.41)"/>
        <rect class="cls-1" x="816.78" y="102.58" width=".71" height=".71" transform="translate(1640.49 82.73) rotate(171.41)"/>
      </g>
      <g>
        <rect class="cls-2" x="716.97" y="134.57" width="1.67" height="3.15" transform="translate(1447.89 163.61) rotate(171.41)"/>
        <rect class="cls-2" x="716.97" y="134.57" width="1.67" height="3.15" transform="translate(745.27 -593.94) rotate(81.41)"/>
        <rect class="cls-1" x="717.13" y="135.48" width="1.34" height="1.34" transform="translate(1447.88 163.62) rotate(171.41)"/>
        <rect class="cls-1" x="717.6" y="136.81" width=".71" height=".71" transform="translate(1448.34 165.62) rotate(171.41)"/>
        <rect class="cls-1" x="717.29" y="134.78" width=".71" height=".71" transform="translate(1447.43 161.63) rotate(171.41)"/>
        <rect class="cls-1" x="716.43" y="135.95" width=".71" height=".71" transform="translate(1445.89 164.08) rotate(171.41)"/>
        <rect class="cls-1" x="718.46" y="135.65" width=".71" height=".71" transform="translate(1449.88 163.17) rotate(171.41)"/>
      </g>
      <g>
        <rect class="cls-2" x="688.45" y="128.99" width="1.67" height="3.15" transform="translate(1390.33 156.76) rotate(171.41)"/>
        <rect class="cls-2" x="688.45" y="128.99" width="1.67" height="3.15" transform="translate(715.48 -570.48) rotate(81.41)"/>
        <rect class="cls-1" x="688.61" y="129.9" width="1.34" height="1.34" transform="translate(1390.32 156.77) rotate(171.41)"/>
        <rect class="cls-1" x="689.07" y="131.23" width=".71" height=".71" transform="translate(1390.77 158.77) rotate(171.41)"/>
        <rect class="cls-1" x="688.77" y="129.2" width=".71" height=".71" transform="translate(1389.86 154.78) rotate(171.41)"/>
        <rect class="cls-1" x="687.91" y="130.37" width=".71" height=".71" transform="translate(1388.32 157.23) rotate(171.41)"/>
        <rect class="cls-1" x="689.93" y="130.06" width=".71" height=".71" transform="translate(1392.31 156.32) rotate(171.41)"/>
      </g>
      <g>
        <rect class="cls-2" x="570.26" y="153.67" width="1.67" height="3.15" transform="translate(1158.96 223.5) rotate(171.41)"/>
        <rect class="cls-2" x="570.26" y="153.67" width="1.67" height="3.15" transform="translate(639.34 -432.62) rotate(81.41)"/>
        <rect class="cls-1" x="570.42" y="154.58" width="1.34" height="1.34" transform="translate(1158.95 223.51) rotate(171.41)"/>
        <rect class="cls-1" x="570.89" y="155.91" width=".71" height=".71" transform="translate(1159.41 225.51) rotate(171.41)"/>
        <rect class="cls-1" x="570.58" y="153.88" width=".71" height=".71" transform="translate(1158.5 221.52) rotate(171.41)"/>
        <rect class="cls-1" x="569.72" y="155.05" width=".71" height=".71" transform="translate(1156.96 223.97) rotate(171.41)"/>
        <rect class="cls-1" x="571.75" y="154.74" width=".71" height=".71" transform="translate(1160.95 223.06) rotate(171.41)"/>
      </g>
    </g>
  </g>
</svg>