<?xml version="1.0" encoding="UTF-8"?>
<svg id="Layer_2" xmlns="http://www.w3.org/2000/svg" viewBox="0 0 44.11 64.52">
  <defs>
    <style>
      .cls-1 {
        fill: #262626;
      }

      .cls-2 {
        fill: #f9db57;
      }

      .cls-3 {
        fill: none;
      }

      .cls-4 {
        fill: #1c1c1c;
      }

      .cls-5 {
        fill: #f9cc09;
      }

      .cls-6 {
        fill: #a7a9ac;
      }

      .cls-7 {
        fill: #f9b400;
      }

      .cls-8 {
        fill: #121010;
      }
    </style>
  </defs>
  <g id="Layer_1-2" data-name="Layer_1">
    <g>
      <polygon class="cls-3" points="25.15 18.61 25.16 15.9 25.16 14.91 22.65 13.55 22.66 12.53 21.56 12.68 21.56 15.39 21.55 18.1 19.04 18.45 19.04 21.16 19.04 22.18 25.15 21.32 25.15 18.61"/>
      <polygon class="cls-4" points="44.11 33.89 41.6 32.53 41.6 34.25 44.11 33.89"/>
      <polygon class="cls-1" points="41.6 34.25 41.6 36.96 41.59 39.67 41.59 42.38 41.58 45.08 41.58 47.79 44.09 47.44 44.09 44.73 44.1 42.02 44.1 39.31 44.11 36.6 44.11 33.89 41.6 34.25"/>
      <polygon class="cls-1" points="36.54 56.63 39.05 56.28 39.05 53.57 36.54 53.92 36.54 56.63"/>
      <polygon class="cls-1" points="39.06 50.86 39.05 53.57 41.57 53.22 41.57 50.51 41.58 47.79 39.06 48.15 39.06 50.86"/>
      <polygon class="cls-1" points="31.52 57.34 31.51 60.05 34.02 59.69 36.53 59.34 36.54 56.63 34.03 56.98 31.52 57.34"/>
      <polygon class="cls-2" points="41.59 42.38 41.59 39.67 41.6 36.96 41.6 34.25 39.09 34.6 39.08 37.31 39.08 40.02 39.07 42.73 39.07 45.44 39.06 48.15 41.58 47.79 41.58 45.08 41.59 42.38"/>
      <polygon class="cls-4" points="41.61 28.83 39.1 27.46 39.1 29.18 41.61 28.83"/>
      <polygon class="cls-1" points="39.09 31.89 39.09 34.6 41.6 34.25 41.6 32.53 41.61 31.54 41.61 28.83 39.1 29.18 39.09 31.89"/>
      <polygon class="cls-1" points="26.49 60.75 23.98 61.1 21.47 61.46 18.96 61.81 18.96 64.52 21.47 64.17 23.98 63.81 26.49 63.46 29 63.11 31.51 62.75 31.51 60.05 29 60.4 26.49 60.75"/>
      <polygon class="cls-8" points="16.45 62.16 15 62.37 18.96 64.52 18.96 61.81 16.45 62.16"/>
      <polygon class="cls-8" points="13.94 59.81 11.43 60.16 11.44 57.45 8.93 57.8 8.93 55.09 8.94 52.38 6.43 52.73 6.43 50.02 6.44 47.32 6.44 44.61 6.45 41.9 6.45 39.19 .03 35.69 .02 38.4 .01 41.11 0 43.82 0 46.53 0 49.24 2.51 50.6 2.5 51.59 2.5 54.3 5.01 55.67 5.01 56.66 7.51 58.02 7.51 59.02 13.94 62.51 13.94 59.81"/>
      <polygon class="cls-1" points="18.96 61.81 18.97 59.1 16.45 59.45 13.94 59.81 13.94 62.51 15 62.37 16.45 62.16 18.96 61.81"/>
      <polygon class="cls-1" points="36.61 15.99 36.61 18.69 36.6 21.4 36.6 24.11 36.59 26.83 34.08 27.18 34.08 29.89 36.59 29.53 39.1 29.18 39.1 27.46 39.1 26.47 39.11 23.76 39.11 21.05 39.12 18.34 39.12 15.63 39.13 12.92 36.62 13.28 36.61 15.99"/>
      <polygon class="cls-4" points="39.13 12.92 36.62 11.56 36.62 13.28 39.13 12.92"/>
      <polygon class="cls-1" points="13.95 57.1 11.44 57.45 11.43 60.16 13.94 59.81 13.95 57.1"/>
      <path class="cls-5" d="M39.06,48.15v-2.71s0-2.71,0-2.71v-2.71s0-2.71,0-2.71v-2.71s0-2.71,0-2.71v-2.71s-2.5.35-2.5.35l-2.51.35v-2.71s-2.5.35-2.5.35l-2.51.35-2.51.35-2.51.35-2.51.35-2.51.35-2.51.35v2.71s-2.52.35-2.52.35l-2.51.35v2.71s0,2.71,0,2.71v2.71s-.01,2.71-.01,2.71l2.51-.35v2.71s0,2.71,0,2.71l2.51-.35v2.71s-.01,2.71-.01,2.71l2.51-.35v2.71s2.5-.35,2.5-.35v2.71s2.51-.35,2.51-.35v2.71s2.5-.35,2.5-.35l2.51-.35,2.51-.35v-2.71s2.52-.35,2.52-.35l2.51-.35v-2.71s2.51-.35,2.51-.35v-2.71s.01-2.71.01-2.71ZM29.04,38.72v2.71s-.01,2.71-.01,2.71l-2.51.35v2.71s0,2.71,0,2.71v2.71s-2.52.35-2.52.35v-2.71s0-2.71,0-2.71v-2.71s-2.51.35-2.51.35v-2.71s0-2.71,0-2.71v-2.71s2.52-.35,2.52-.35l2.51-.35,2.51-.35v2.71Z"/>
      <polygon class="cls-1" points="24.03 36.72 21.52 37.07 21.51 39.78 21.51 42.49 21.5 45.2 24.01 44.84 24.01 47.55 24 50.26 24 52.98 26.51 52.62 26.51 49.91 26.52 47.2 26.52 44.49 29.03 44.14 29.04 41.43 29.04 38.72 29.05 36.01 26.54 36.36 24.03 36.72"/>
      <polygon class="cls-1" points="34.11 10.92 34.11 13.63 36.62 13.28 36.62 11.56 36.62 10.57 36.63 7.86 34.12 8.21 34.11 10.92"/>
      <polygon class="cls-4" points="36.63 7.86 34.12 6.49 34.12 8.21 36.63 7.86"/>
      <polygon class="cls-1" points="11.44 54.74 11.45 52.03 8.94 52.38 8.93 55.09 8.93 57.8 11.44 57.45 11.44 54.74"/>
      <polygon class="cls-8" points="26.58 11.98 24.07 12.33 22.66 12.53 22.65 13.55 25.16 14.91 25.16 15.9 25.15 18.61 25.15 21.32 31.58 24.82 31.58 22.11 31.59 19.4 31.59 16.69 29.08 17.04 29.09 14.33 29.09 11.62 26.58 11.98"/>
      <polygon class="cls-1" points="29.09 14.33 29.08 17.04 31.59 16.69 31.6 13.98 31.6 11.27 29.09 11.62 29.09 14.33"/>
      <polygon class="cls-6" points="36.59 26.83 36.6 24.11 36.6 21.4 36.61 18.69 36.61 15.99 36.62 13.28 34.11 13.63 34.11 10.92 34.12 8.21 31.61 8.56 29.1 8.92 29.09 11.62 31.6 11.27 31.6 13.98 31.59 16.69 34.1 16.34 34.1 19.05 34.09 21.76 34.09 24.47 34.08 27.18 36.59 26.83"/>
      <polygon class="cls-4" points="25.15 21.32 19.04 22.18 19.03 23.87 19.03 26.58 31.58 24.82 25.15 21.32"/>
      <polygon class="cls-1" points="31.61 5.85 29.1 6.21 29.1 8.92 31.61 8.56 34.12 8.21 34.12 6.49 34.12 5.5 31.61 5.85"/>
      <polygon class="cls-7" points="8.96 41.54 8.95 44.25 8.95 46.96 8.94 49.67 8.94 52.38 11.45 52.03 11.44 54.74 11.44 57.45 13.95 57.1 13.94 59.81 16.45 59.45 18.97 59.1 18.96 61.81 21.47 61.46 23.98 61.1 23.99 58.39 21.48 58.75 21.48 56.04 18.97 56.39 18.98 53.68 16.46 54.03 16.47 51.32 16.47 48.61 13.96 48.97 13.97 46.26 13.97 43.55 11.46 43.9 11.47 41.19 11.47 38.48 8.96 38.83 8.96 41.54"/>
      <polygon class="cls-8" points="8.96 38.83 8.97 36.12 8.97 33.42 2.55 29.92 2.54 32.63 2.54 35.34 8.96 38.83"/>
      <polygon class="cls-8" points="11.49 30.35 11.49 27.64 11.5 24.93 11.5 22.22 11.51 19.51 11.51 16.8 5.09 13.31 5.08 16.02 5.08 18.73 5.07 21.44 5.07 24.14 5.06 26.86 5.06 29.57 11.48 33.06 11.49 30.35"/>
      <polygon class="cls-1" points="8.94 49.67 8.95 46.96 8.95 44.25 8.96 41.54 8.96 38.83 6.45 39.19 6.45 41.9 6.44 44.61 6.44 47.32 6.43 50.02 6.43 52.73 8.94 52.38 8.94 49.67"/>
      <polygon class="cls-4" points="6.45 39.19 8.96 38.83 2.54 35.34 .03 35.69 6.45 39.19"/>
      <polygon class="cls-4" points="8.97 33.42 11.48 33.06 5.06 29.57 2.55 29.92 8.97 33.42"/>
      <polygon class="cls-1" points="8.97 36.12 8.96 38.83 11.47 38.48 11.48 35.77 11.48 33.06 8.97 33.42 8.97 36.12"/>
      <polygon class="cls-1" points="26.59 9.27 24.08 9.62 21.57 9.97 21.56 12.68 22.66 12.53 24.07 12.33 26.58 11.98 29.09 11.62 29.1 8.92 26.59 9.27"/>
      <polygon class="cls-1" points="34.09 24.47 34.09 21.76 34.1 19.05 34.1 16.34 31.59 16.69 31.59 19.4 31.58 22.11 31.58 24.82 19.03 26.58 19.03 23.87 19.04 22.18 19.04 21.16 19.04 18.45 16.53 18.81 16.53 21.52 16.52 24.23 16.51 26.94 16.51 29.65 19.02 29.29 21.53 28.94 24.04 28.59 26.55 28.24 29.06 27.88 31.57 27.53 34.08 27.18 34.09 24.47"/>
      <polygon class="cls-1" points="21.56 15.39 21.56 12.68 19.05 13.04 19.05 15.75 19.04 18.45 21.55 18.1 21.56 15.39"/>
      <polygon class="cls-6" points="21.57 9.97 24.08 9.62 26.59 9.27 29.1 8.92 29.1 6.21 26.59 6.56 24.08 6.91 21.57 7.27 21.57 9.97"/>
      <polygon class="cls-8" points="21.57 7.27 21.58 4.56 15.15 1.06 15.14 3.77 21.57 7.27"/>
      <polygon class="cls-1" points="24.08 6.91 26.59 6.56 29.1 6.21 29.11 3.5 26.6 3.85 24.09 4.2 21.58 4.56 21.57 7.27 24.08 6.91"/>
      <polygon class="cls-4" points="21.58 4.56 24.09 4.2 26.6 3.85 29.11 3.5 29.1 6.21 31.61 5.85 34.12 5.5 27.69 2 26.64 2.15 22.68 0 20.17 .35 17.66 .71 15.15 1.06 21.58 4.56"/>
      <polygon class="cls-6" points="16.51 26.94 16.52 24.23 16.53 21.52 16.53 18.81 19.04 18.45 19.05 15.75 19.05 13.04 21.56 12.68 21.57 9.97 19.06 10.33 16.55 10.68 16.54 13.39 16.54 16.1 14.02 16.45 14.02 19.16 14.01 21.87 14.01 24.58 14 27.29 14 30 16.51 29.65 16.51 26.94"/>
      <polygon class="cls-8" points="14.02 16.45 14.03 13.74 14.04 11.03 7.61 7.54 7.6 10.24 7.6 12.95 14.02 16.45"/>
      <polygon class="cls-1" points="19.06 10.33 21.57 9.97 21.57 7.27 19.06 7.62 16.55 7.97 16.55 10.68 19.06 10.33"/>
      <polygon class="cls-4" points="16.55 7.97 19.06 7.62 21.57 7.27 15.14 3.77 12.63 4.12 10.12 4.47 16.55 7.97"/>
      <polygon class="cls-8" points="16.55 10.68 16.55 7.97 10.12 4.47 10.12 7.18 16.55 10.68"/>
      <polygon class="cls-1" points="14 27.29 14.01 24.58 14.01 21.87 14.02 19.16 14.02 16.45 11.51 16.8 11.51 19.51 11.5 22.22 11.5 24.93 11.49 27.64 11.49 30.35 11.48 33.06 13.99 32.71 16.5 32.36 16.51 29.65 14 30 14 27.29"/>
      <polygon class="cls-4" points="11.51 16.8 14.02 16.45 7.6 12.95 5.09 13.31 11.51 16.8"/>
      <polygon class="cls-4" points="14.04 11.03 16.55 10.68 10.12 7.18 7.61 7.54 14.04 11.03"/>
      <polygon class="cls-1" points="16.54 16.1 16.54 13.39 16.55 10.68 14.04 11.03 14.03 13.74 14.02 16.45 16.54 16.1"/>
    </g>
  </g>
</svg>