<?xml version="1.0" encoding="UTF-8"?>
<svg id="Layer_2" data-name="Layer 2" xmlns="http://www.w3.org/2000/svg" viewBox="0 0 81.33 53.64">
  <defs>
    <style>
      .cls-1 {
        fill: #f77622;
      }

      .cls-2 {
        fill: #ffb900;
      }

      .cls-3 {
        fill: #fff500;
      }

      .cls-4 {
        fill: #996900;
      }

      .cls-5 {
        fill: #cc9700;
      }

      .cls-6 {
        fill: #cc9100;
      }

      .cls-7 {
        fill: #ffc000;
      }

      .cls-8 {
        fill: #feae34;
      }

      .cls-9 {
        fill: #996d00;
      }

      .cls-10 {
        fill: #fffd01;
      }
    </style>
  </defs>
  <g id="Layer_1-2" data-name="Layer 1">
    <g>
      <rect class="cls-1" x="48.41" y="51.48" width="2.16" height="2.16"/>
      <rect class="cls-1" x="31.12" y="51.48" width="2.16" height="2.16"/>
      <rect class="cls-1" x="41.93" y="49.32" width="2.16" height="2.16"/>
      <rect class="cls-1" x="33.28" y="49.32" width="2.16" height="2.16"/>
      <rect class="cls-1" x="44.09" y="47.16" width="2.16" height="2.16"/>
      <rect class="cls-1" x="35.44" y="47.16" width="2.16" height="2.16"/>
      <rect class="cls-1" x="46.25" y="45" width="2.16" height="2.16"/>
      <rect class="cls-1" x="37.6" y="45" width="2.16" height="2.16"/>
      <rect class="cls-1" x="39.76" y="42.83" width="2.16" height="2.16"/>
      <rect class="cls-1" x="41.93" y="40.67" width="2.16" height="2.16"/>
      <rect class="cls-1" x="44.09" y="38.51" width="2.16" height="2.16"/>
      <rect class="cls-1" x="46.25" y="36.35" width="2.16" height="2.16"/>
      <rect class="cls-1" x="48.41" y="34.19" width="2.16" height="2.16"/>
      <rect class="cls-1" x="39.76" y="29.86" width="2.16" height="4.32"/>
      <rect class="cls-1" x="41.93" y="25.54" width="2.16" height="4.32"/>
      <rect class="cls-1" x="28.96" y="23.38" width="2.16" height="2.16"/>
      <rect class="cls-1" x="44.09" y="21.22" width="2.16" height="4.32"/>
      <rect class="cls-1" x="31.12" y="21.22" width="2.16" height="2.16"/>
      <rect class="cls-1" x="33.28" y="19.06" width="2.16" height="2.16"/>
      <rect class="cls-1" x="46.25" y="16.89" width="2.16" height="4.32"/>
      <rect class="cls-1" x="35.44" y="16.89" width="2.16" height="2.16"/>
      <rect class="cls-1" x="26.8" y="16.89" width="2.16" height="2.16"/>
      <rect class="cls-1" x="48.41" y="14.73" width="2.16" height="2.16"/>
      <rect class="cls-8" x="28.96" y="51.48" width="2.16" height="2.16"/>
      <polygon class="cls-8" points="41.93 29.86 41.93 25.54 44.09 25.54 44.09 21.22 46.25 21.22 46.25 16.89 44.09 16.89 44.09 19.06 41.93 19.06 41.93 21.22 39.76 21.22 39.76 23.38 37.6 23.38 37.6 25.54 35.44 25.54 35.44 27.7 33.28 27.7 33.28 29.86 31.12 29.86 31.12 32.03 28.96 32.03 28.96 34.19 26.8 34.19 26.8 36.35 37.6 36.35 37.6 38.51 35.44 38.51 35.44 42.83 33.28 42.83 33.28 47.16 31.12 47.16 31.12 51.48 33.28 51.48 33.28 49.32 35.44 49.32 35.44 47.16 37.6 47.16 37.6 45 39.76 45 39.76 42.83 41.93 42.83 41.93 40.67 44.09 40.67 44.09 38.51 46.25 38.51 46.25 36.35 48.41 36.35 48.41 34.19 39.76 34.19 39.76 29.86 41.93 29.86"/>
      <rect class="cls-8" x="46.25" y="14.73" width="2.16" height="2.16"/>
    </g>
    <g>
      <g>
        <path class="cls-4" d="M79.91,18.43c-.03.1-.6,2.12-.63,2.22l1.11.32c.03-.1.6-2.12.63-2.22l-1.11-.32Z"/>
        <path class="cls-4" d="M77.53,22.55l1.11.32.63-2.22-1.11-.32c-.03.1-.6,2.12-.63,2.22Z"/>
        <rect class="cls-4" x="76.25" y="22.37" width="1.15" height="1.15" transform="translate(33.72 90.55) rotate(-74.11)"/>
        <rect class="cls-4" x="74.82" y="23.16" width="1.15" height="1.15" transform="translate(31.92 89.75) rotate(-74.11)"/>
        <rect class="cls-4" x="73.4" y="23.95" width="1.15" height="1.15" transform="translate(30.13 88.96) rotate(-74.11)"/>
        <rect class="cls-4" x="71.97" y="24.75" width="1.15" height="1.15" transform="translate(28.33 88.17) rotate(-74.11)"/>
        <rect class="cls-4" x="70.55" y="25.54" width="1.15" height="1.15" transform="translate(26.53 87.37) rotate(-74.11)"/>
        <rect class="cls-4" x="69.12" y="26.33" width="1.15" height="1.15" transform="translate(24.73 86.58) rotate(-74.11)"/>
        <path class="cls-4" d="M65.04,36.97c-.05-.02-4.39-1.25-4.44-1.26l-.32,1.11,5.54,1.58c.07-.23,1.51-5.32,1.58-5.54l-1.11-.32c-.03.1-1.25,4.38-1.26,4.44Z"/>
        <path class="cls-4" d="M67.25,29.21l-4.44-1.26-.32,1.11c.12.03,5.43,1.55,5.54,1.58.04-.13.92-3.24.95-3.33l-1.11-.32-.63,2.22Z"/>
        <path class="cls-4" d="M72.3,11.47l-3.33-.95-.32,1.11s3.27.93,3.33.95l.32-1.11Z"/>
        <rect class="cls-4" x="67.37" y="11.45" width="1.15" height="1.15" transform="translate(37.77 74.08) rotate(-74.11)"/>
        <rect class="cls-4" x="65.94" y="12.24" width="1.15" height="1.15" transform="translate(35.98 73.28) rotate(-74.11)"/>
        <path class="cls-4" d="M64.38,14.01l-4.44-1.26-.32,1.11c.12.03,5.43,1.54,5.54,1.58l.63-2.22-1.11-.32-.32,1.11Z"/>
      </g>
      <g>
        <path class="cls-6" d="M80.22,17.32c.03-.1.6-2.12.63-2.22l-1.11-.32c-.03.09-1.56,5.49-1.58,5.54l1.11.32.63-2.22,1.11.32.32-1.11-1.11-.32Z"/>
        <path class="cls-6" d="M76.42,22.23l1.11.32.63-2.22-1.11-.32-.63,2.22Z"/>
        <rect class="cls-6" x="78.77" y="13.5" width="1.15" height="1.15" transform="translate(44.09 86.53) rotate(-74.11)"/>
        <rect class="cls-6" x="75.14" y="22.05" width="1.15" height="1.15" transform="translate(33.22 89.25) rotate(-74.11)"/>
        <rect class="cls-6" x="77.98" y="12.07" width="1.15" height="1.15" transform="translate(44.88 84.74) rotate(-74.11)"/>
        <rect class="cls-6" x="73.71" y="22.85" width="1.15" height="1.15" transform="translate(31.42 88.46) rotate(-74.11)"/>
        <path class="cls-6" d="M76.26,10.2l-.32,1.11,2.22.63.32-1.11-2.22-.63Z"/>
        <rect class="cls-6" x="72.29" y="23.64" width="1.15" height="1.15" transform="translate(29.62 87.66) rotate(-74.11)"/>
        <path class="cls-6" d="M74.84,19.38l.95-3.33-1.11-.32c-.04.13-.91,3.2-.95,3.33l1.11.32Z"/>
        <rect class="cls-6" x="70.86" y="24.43" width="1.15" height="1.15" transform="translate(27.83 86.87) rotate(-74.11)"/>
        <rect class="cls-6" x="73.7" y="14.45" width="1.15" height="1.15" transform="translate(39.49 82.35) rotate(-74.11)"/>
        <rect class="cls-6" x="69.44" y="25.22" width="1.15" height="1.15" transform="translate(26.03 86.08) rotate(-74.11)"/>
        <rect class="cls-6" x="72.91" y="13.03" width="1.15" height="1.15" transform="translate(40.28 80.56) rotate(-74.11)"/>
        <rect class="cls-6" x="68.01" y="26.02" width="1.15" height="1.15" transform="translate(24.23 85.28) rotate(-74.11)"/>
        <rect class="cls-6" x="72.12" y="11.6" width="1.15" height="1.15" transform="translate(41.08 78.76) rotate(-74.11)"/>
        <path class="cls-6" d="M64.24,35.55l-2.22-.63-1.11-.32-.32,1.11c.06.02,4.38,1.25,4.44,1.26.02-.09,1.23-4.31,1.26-4.44l-1.11-.32c-.02.09-.91,3.2-.95,3.33Z"/>
        <path class="cls-6" d="M66.45,27.78l-2.22-.63-1.11-.32-.32,1.11,4.44,1.26.63-2.22-1.11-.32-.32,1.11Z"/>
        <path class="cls-6" d="M72.61,10.36l-3.33-.95-.32,1.11,3.33.95.32-1.11Z"/>
        <rect class="cls-6" x="67.68" y="10.34" width="1.15" height="1.15" transform="translate(39.07 73.58) rotate(-74.11)"/>
        <rect class="cls-6" x="66.26" y="11.13" width="1.15" height="1.15" transform="translate(37.27 72.78) rotate(-74.11)"/>
        <rect class="cls-6" x="64.83" y="11.93" width="1.15" height="1.15" transform="translate(35.47 71.99) rotate(-74.11)"/>
        <path class="cls-6" d="M60.26,11.64l-.32,1.11,4.44,1.26.32-1.11-3.33-.95-1.11-.32Z"/>
      </g>
      <g>
        <path class="cls-2" d="M78.63,14.47l.32-1.11-1.11-.32.32-1.11-2.22-.63.32-1.11c-.16-.05-8.63-2.46-8.87-2.53l-.32,1.11-2.22-.63-.32,1.11-1.11-.32-.32,1.11-1.11-.32-.63,2.22,3.33.95.32-1.11,1.11.32.32-1.11,1.11.32.32-1.11,1.11.32.32-1.11,3.33.95-.32,1.11,1.11.32-.32,1.11,1.11.32-.32,1.11,1.11.32-.32,1.11,1.11.32c-.04.13-.91,3.2-.95,3.33l-1.11-.32-.32,1.11-1.11-.32-.32,1.11-1.11-.32-.32,1.11-1.11-.32-.32,1.11-1.11-.32-.32,1.11-1.11-.32-.32,1.11-1.11-.32c-.04.13-.92,3.24-.95,3.33l2.22.63.32-1.11,1.11.32.32-1.11,1.11.32.32-1.11,1.11.32.32-1.11,1.11.32.32-1.11,1.11.32.32-1.11,1.11.32.32-1.11,1.11.32c.03-.1.6-2.12.63-2.22l1.11.32c.02-.06,1.54-5.42,1.58-5.54l-1.11-.32Z"/>
        <path class="cls-2" d="M62.03,34.92l2.22.63c.04-.13.92-3.24.95-3.33l-2.22-.63c-.04.13-.92,3.24-.95,3.33Z"/>
      </g>
      <g>
        <rect class="cls-3" x="72.44" y="18.89" width="1.15" height="1.15" transform="translate(34.3 84.36) rotate(-74.11)"/>
        <path class="cls-3" d="M67.7,6.56l-.32,1.11c.24.07,8.59,2.45,8.87,2.53l.32-1.11c-.16-.05-8.63-2.46-8.87-2.53Z"/>
        <rect class="cls-3" x="71.02" y="19.68" width="1.15" height="1.15" transform="translate(32.51 83.57) rotate(-74.11)"/>
        <rect class="cls-3" x="69.59" y="20.47" width="1.15" height="1.15" transform="translate(30.71 82.77) rotate(-74.11)"/>
        <rect class="cls-3" x="68.17" y="21.27" width="1.15" height="1.15" transform="translate(28.91 81.98) rotate(-74.11)"/>
        <rect class="cls-3" x="66.74" y="22.06" width="1.15" height="1.15" transform="translate(27.12 81.19) rotate(-74.11)"/>
        <rect class="cls-3" x="65.32" y="22.85" width="1.15" height="1.15" transform="translate(25.32 80.39) rotate(-74.11)"/>
        <path class="cls-3" d="M61.23,33.49l-.32,1.11,1.11.32c.02-.09.91-3.2.95-3.33l-1.11-.32c-.03.1-.6,2.12-.63,2.22Z"/>
        <path class="cls-3" d="M63.13,26.84l1.11.32c.02-.09.91-3.2.95-3.33l-1.11-.32c-.04.13-.92,3.24-.95,3.33Z"/>
        <path class="cls-3" d="M64.85,8.15l2.22.63.32-1.11-2.22-.63-.32,1.11Z"/>
        <rect class="cls-3" x="63.56" y="7.97" width="1.15" height="1.15" transform="translate(38.36 67.89) rotate(-74.11)"/>
        <rect class="cls-3" x="62.14" y="8.76" width="1.15" height="1.15" transform="translate(36.56 67.1) rotate(-74.11)"/>
        <path class="cls-3" d="M60.26,11.64l1.11.32.63-2.22-1.11-.32c-.03.1-.6,2.12-.63,2.22Z"/>
      </g>
    </g>
    <g>
      <g>
        <path class="cls-9" d="M9.97,1.98c.1.42,2.18,9.2,2.28,9.6l1.6-.38c-.09-.38-2.19-9.23-2.28-9.6l-1.6.38Z"/>
        <path class="cls-9" d="M17.86,42.34c-.14.03-6.33,1.5-6.4,1.52l.38,1.6c.17-.04,7.83-1.86,8-1.9-.08-.33-1.82-7.67-1.9-8l-1.6.38c.03.14,1.5,6.32,1.52,6.4Z"/>
        <path class="cls-9" d="M13.31,23.15l1.6-.38c-.1-.43-2.55-10.75-2.66-11.19l-1.6.38s2.6,10.95,2.66,11.19Z"/>
        <path class="cls-9" d="M13.6,31.52l-3.2.76.38,1.6,4.8-1.14c-.09-.38-2.19-9.23-2.28-9.6l-1.6.38c.04.17,1.86,7.83,1.9,8Z"/>
      </g>
      <g>
        <rect class="cls-5" x="9.76" y=".17" width="1.64" height="1.64" transform="translate(.06 2.47) rotate(-13.34)"/>
        <path class="cls-5" d="M10.65,11.95l1.6-.38c-.09-.38-2.19-9.23-2.28-9.6l-1.6.38c.1.42,2.18,9.2,2.28,9.6Z"/>
        <path class="cls-5" d="M15.88,41.12l-3.2.76-1.6.38.38,1.6c.13-.03,6.22-1.48,6.4-1.52l-1.52-6.4-1.6.38c.03.12,1.09,4.61,1.14,4.8Z"/>
        <path class="cls-5" d="M11.71,23.53l1.6-.38c-.06-.24-2.65-11.15-2.66-11.19l-1.6.38c.14.61,2.58,10.87,2.66,11.19Z"/>
        <path class="cls-5" d="M11.63,30.3l-1.6.38.38,1.6,3.2-.76c-.08-.33-1.82-7.67-1.9-8l-1.6.38c.03.14,1.5,6.32,1.52,6.4Z"/>
      </g>
      <g>
        <path class="cls-7" d="M1.98,3.88c.04.18,2.25,9.49,2.28,9.6l1.6-.38c.06.23,2.6,10.96,2.66,11.19.03.14,1.5,6.32,1.52,6.4l1.6-.38-1.52-6.4,1.6-.38s-2.59-10.94-2.66-11.19l1.6-.38c-.09-.38-2.19-9.23-2.28-9.6-.13.03-6.22,1.48-6.4,1.52Z"/>
        <path class="cls-7" d="M12.68,41.88l3.2-.76c-.04-.19-1.11-4.68-1.14-4.8l-3.2.76c.03.12,1.09,4.61,1.14,4.8Z"/>
      </g>
      <g>
        <path class="cls-10" d="M0,2.66c.16.69,2.58,10.87,2.66,11.19l1.6-.38c-.04-.18-2.24-9.44-2.28-9.6.14-.03,6.33-1.5,6.4-1.52l1.6-.38-.38-1.6L0,2.66Z"/>
        <path class="cls-10" d="M11.08,42.26l1.6-.38c-.04-.19-1.11-4.68-1.14-4.8l-1.6.38c.04.19,1.11,4.68,1.14,4.8Z"/>
        <path class="cls-10" d="M8.51,24.29c-.03-.11-2.63-11.08-2.66-11.19l-1.6.38c.14.61,2.58,10.87,2.66,11.19l1.6-.38Z"/>
      </g>
    </g>
  </g>
</svg>